<svg width="25" height="25" viewBox="0 0 25 25" fill="none" xmlns="http://www.w3.org/2000/svg">
<path d="M23.3958 7.80367C22.8761 7.28959 22.0498 7.25728 21.4911 7.70727C21.4103 7.77235 21.4728 7.715 20.2426 8.93094L23.4361 12.0873L24.5838 10.9671C25.1387 10.4186 25.1387 9.52627 24.5838 8.97778L23.3958 7.80367Z" fill="white"/>
<path d="M13.6936 15.4635L11.8151 19.4421C11.6885 19.7102 11.7451 20.0277 11.9567 20.2369C12.1683 20.446 12.4898 20.5019 12.7608 20.3769L16.7864 18.5202C16.9456 18.4467 16.4635 18.8927 22.4234 13.0759L19.2362 9.92578C13.3271 15.766 13.7694 15.303 13.6936 15.4635Z" fill="white"/>
<path d="M17.9852 19.3841C17.811 19.5541 17.6101 19.6922 17.3882 19.7946L13.3627 21.6512C12.5711 22.0164 11.604 21.8773 10.9504 21.2312C10.318 20.6062 10.1472 19.6481 10.5254 18.847L12.404 14.8683C12.5095 14.6449 12.6525 14.4432 12.8289 14.2687L18.8807 8.28748V2.32782C18.8807 1.16441 17.9231 0.217896 16.7459 0.217896H2.84582C1.66868 0.217896 0.710999 1.16441 0.710999 2.32782V22.1143C0.710999 23.2777 1.66868 24.2242 2.84582 24.2242H16.7459C17.9231 24.2242 18.8807 23.2777 18.8807 22.1143V18.51L17.9852 19.3841ZM4.50629 4.76596H15.133C15.526 4.76596 15.8446 5.08086 15.8446 5.46927C15.8446 5.85769 15.526 6.17258 15.133 6.17258H4.50629C4.11329 6.17258 3.79468 5.85769 3.79468 5.46927C3.79468 5.08086 4.11329 4.76596 4.50629 4.76596ZM4.50629 8.51694H12.8558C13.2488 8.51694 13.5674 8.83184 13.5674 9.22025C13.5674 9.60867 13.2488 9.92356 12.8558 9.92356H4.50629C4.11329 9.92356 3.79468 9.60867 3.79468 9.22025C3.79468 8.83184 4.11329 8.51694 4.50629 8.51694ZM3.79468 12.9712C3.79468 12.5828 4.11329 12.2679 4.50629 12.2679H10.5787C10.9717 12.2679 11.2903 12.5828 11.2903 12.9712C11.2903 13.3596 10.9717 13.6745 10.5787 13.6745H4.50629C4.11329 13.6745 3.79468 13.3596 3.79468 12.9712Z" fill="white"/>
</svg>
