<svg width="33" height="33" viewBox="0 0 33 33" fill="none" xmlns="http://www.w3.org/2000/svg">
<g clip-path="url(#clip0)">
<path d="M16.7561 32.3583C25.5926 32.3583 32.756 25.1949 32.756 16.3583C32.756 7.52181 25.5926 0.358398 16.7561 0.358398C7.91954 0.358398 0.756126 7.52181 0.756126 16.3583C0.756126 25.1949 7.91954 32.3583 16.7561 32.3583Z" fill="#4E598F"/>
<path d="M32.7297 15.4648L25.1937 7.92638C25.0688 7.96419 24.7573 7.81926 24.6204 7.84676C21.3881 8.38551 18.2636 7.84676 15.1389 8.70869C13.6305 9.13969 13.5228 10.9713 12.9841 12.1565C12.2299 14.3114 12.3376 16.6817 11.3679 18.7288C10.7215 20.1295 9.21303 20.9915 8.67428 22.6076C8.4946 23.2817 8.50522 24.1313 8.30204 24.7758L15.8633 32.3333C16.1586 32.3496 16.4558 32.3585 16.7551 32.3585C25.5915 32.3585 32.755 25.1951 32.755 16.3586C32.7551 16.0586 32.7461 15.7607 32.7297 15.4648Z" fill="#364270"/>
<path d="M23.4452 7.19971H10.065C8.70191 7.19971 7.59685 8.3047 7.59685 9.66782V23.0481C7.59685 24.4113 8.70185 25.5162 10.065 25.5162H16.6639L16.6754 18.9711H14.9748C14.7538 18.9711 14.5744 18.7923 14.5736 18.5713L14.5653 16.4614C14.5644 16.2394 14.7445 16.0587 14.9666 16.0587H16.6642V14.0201C16.6642 11.6543 18.1091 10.3661 20.2194 10.3661H21.9513C22.1727 10.3661 22.3525 10.5458 22.3525 10.7674V12.5463C22.3525 12.7679 22.1729 12.9476 21.9515 12.9476L20.8887 12.9482C19.741 12.9482 19.5186 13.4935 19.5186 14.294V16.0589H22.0405C22.281 16.0589 22.4674 16.2688 22.439 16.5072L22.1889 18.6172C22.1651 18.8192 21.9938 18.9712 21.7905 18.9712H19.53L19.5185 25.5166H23.4452C24.8082 25.5166 25.9133 24.4115 25.9133 23.0484V9.66782C25.9133 8.30476 24.8083 7.19971 23.4452 7.19971Z" fill="white"/>
<path d="M16.6639 25.5163L16.6754 18.9712H16.6474V25.5163H16.6639Z" fill="white"/>
<path d="M23.4452 7.19971H16.6474V16.0585H16.6642V14.0199C16.6642 11.6542 18.1091 10.366 20.2194 10.366H21.9513C22.1727 10.366 22.3525 10.5456 22.3525 10.7673V12.5462C22.3525 12.7678 22.1729 12.9474 21.9515 12.9474L20.8887 12.9481C19.741 12.9481 19.5186 13.4934 19.5186 14.2939V16.0587H22.0405C22.281 16.0587 22.4674 16.2686 22.439 16.507L22.1889 18.617C22.1651 18.819 21.9938 18.971 21.7905 18.971H19.53L19.5186 25.5164H23.4452C24.8082 25.5164 25.9133 24.4113 25.9133 23.0482V9.66782C25.9133 8.30476 24.8083 7.19971 23.4452 7.19971Z" fill="#D1D1D1"/>
</g>
<defs>
<clipPath id="clip0">
<rect width="32" height="32" fill="white" transform="translate(0.755127 0.358398)"/>
</clipPath>
</defs>
</svg>
