<svg width="41" height="40" viewBox="0 0 41 40" fill="none" xmlns="http://www.w3.org/2000/svg">
<path d="M6.771 -2.53389e-06L33.3335 -2.11727e-07C33.9756 0.000744205 34.5912 0.256144 35.0452 0.710173C35.4992 1.1642 35.7546 1.77978 35.7554 2.42188L35.7554 37.5781C35.7546 38.2202 35.4992 38.8358 35.0452 39.2898C34.5912 39.7439 33.9756 39.9993 33.3335 40L6.77099 40C6.1289 39.9993 5.51332 39.7439 5.05929 39.2898C4.60526 38.8358 4.34986 38.2202 4.34912 37.5781L4.34912 2.42125C4.35003 1.77926 4.6055 1.16384 5.05951 0.709949C5.51353 0.256056 6.12901 0.000741432 6.771 -2.53389e-06ZM5.44287 37.5775C5.4432 37.9296 5.58323 38.2673 5.83223 38.5163C6.08123 38.7653 6.41885 38.9053 6.77099 38.9056L33.3335 38.9056C33.6856 38.9053 34.0233 38.7653 34.2723 38.5163C34.5213 38.2673 34.6613 37.9296 34.6616 37.5775L34.6616 2.42125C34.6611 2.06922 34.521 1.73176 34.272 1.48289C34.0231 1.23403 33.6855 1.09408 33.3335 1.09375L6.771 1.09375C6.41886 1.09408 6.08123 1.23411 5.83224 1.48311C5.58323 1.73211 5.4432 2.06973 5.44287 2.42187L5.44287 37.5775Z" fill="white"/>
<path d="M8.021 3.125L32.0835 3.125C32.1553 3.12496 32.2265 3.13908 32.2928 3.16654C32.3592 3.19401 32.4195 3.23429 32.4703 3.28508C32.5211 3.33587 32.5614 3.39618 32.5888 3.46255C32.6163 3.52892 32.6304 3.60005 32.6304 3.67188L32.6304 10.5469C32.6304 10.6187 32.6163 10.6898 32.5888 10.7562C32.5614 10.8226 32.5211 10.8829 32.4703 10.9337C32.4195 10.9845 32.3592 11.0247 32.2928 11.0522C32.2265 11.0797 32.1553 11.0938 32.0835 11.0937L8.021 11.0937C7.94917 11.0938 7.87803 11.0797 7.81167 11.0522C7.7453 11.0247 7.68499 10.9845 7.6342 10.9337C7.58341 10.8829 7.54313 10.8226 7.51566 10.7562C7.4882 10.6898 7.47408 10.6187 7.47412 10.5469L7.47412 3.67187C7.47408 3.60004 7.4882 3.52891 7.51567 3.46254C7.54313 3.39618 7.58341 3.33587 7.6342 3.28508C7.685 3.23429 7.7453 3.19401 7.81167 3.16654C7.87803 3.13907 7.94917 3.12496 8.021 3.125ZM8.56787 10L31.5366 10L31.5366 4.21875L8.56787 4.21875L8.56787 10Z" fill="white"/>
<path d="M17.0835 30.476L23.021 30.476C23.166 30.476 23.3051 30.5336 23.4077 30.6361C23.5103 30.7387 23.5679 30.8778 23.5679 31.0228L23.5679 36.3269C23.5681 36.3988 23.5541 36.4701 23.5267 36.5366C23.4993 36.6031 23.459 36.6636 23.4082 36.7145C23.3574 36.7654 23.2971 36.8058 23.2306 36.8333C23.1642 36.8609 23.0929 36.8751 23.021 36.875L17.0835 36.875C17.0117 36.8751 16.9405 36.8609 16.8742 36.8335C16.8078 36.806 16.7475 36.7657 16.6967 36.7149C16.6459 36.6641 16.6056 36.6038 16.5782 36.5375C16.5507 36.4711 16.5366 36.4 16.5366 36.3281L16.5366 31.0228C16.5366 30.8778 16.5942 30.7387 16.6968 30.6361C16.7994 30.5336 16.9385 30.476 17.0835 30.476ZM17.6307 35.7813L22.4744 35.7813L22.4744 31.5697L17.6307 31.5697L17.6307 35.7813Z" fill="white"/>
<path d="M26.1369 30.476L32.0835 30.476C32.2285 30.476 32.3676 30.5336 32.4702 30.6361C32.5728 30.7387 32.6304 30.8778 32.6304 31.0228L32.6304 36.3269C32.6306 36.3988 32.6166 36.4701 32.5892 36.5366C32.5618 36.6031 32.5215 36.6636 32.4707 36.7145C32.4199 36.7654 32.3596 36.8058 32.2931 36.8334C32.2267 36.8609 32.1554 36.8751 32.0835 36.875L26.1369 36.875C26.0651 36.8751 25.994 36.8609 25.9276 36.8335C25.8612 36.806 25.8009 36.7657 25.7501 36.7149C25.6994 36.6641 25.6591 36.6038 25.6316 36.5375C25.6041 36.4711 25.59 36.4 25.5901 36.3281L25.5901 31.0228C25.5901 30.8778 25.6477 30.7387 25.7502 30.6361C25.8528 30.5336 25.9919 30.476 26.1369 30.476ZM26.6838 35.7813L31.5366 35.7813L31.5366 31.5697L26.6838 31.5697L26.6838 35.7813Z" fill="white"/>
<path d="M17.0835 21.8019L23.021 21.8019C23.0928 21.8018 23.164 21.816 23.2303 21.8434C23.2967 21.8709 23.357 21.9112 23.4078 21.962C23.4586 22.0128 23.4989 22.0731 23.5263 22.1394C23.5538 22.2058 23.5679 22.2769 23.5679 22.3488L23.5679 27.6525C23.5679 27.7243 23.5538 27.7955 23.5263 27.8618C23.4989 27.9282 23.4586 27.9885 23.4078 28.0393C23.357 28.0901 23.2967 28.1304 23.2303 28.1578C23.164 28.1853 23.0928 28.1994 23.021 28.1994L17.0835 28.1994C17.0117 28.1994 16.9405 28.1853 16.8742 28.1578C16.8078 28.1304 16.7475 28.0901 16.6967 28.0393C16.6459 27.9885 16.6056 27.9282 16.5782 27.8618C16.5507 27.7955 16.5366 27.7243 16.5366 27.6525L16.5366 22.3488C16.5366 22.2769 16.5507 22.2058 16.5782 22.1394C16.6056 22.0731 16.6459 22.0128 16.6967 21.962C16.7475 21.9112 16.8078 21.8709 16.8742 21.8434C16.9405 21.816 17.0117 21.8018 17.0835 21.8019ZM17.6304 27.1056L22.4741 27.1056L22.4741 22.8956L17.6304 22.8956L17.6304 27.1056Z" fill="white"/>
<path d="M26.1369 21.8019L32.0835 21.8019C32.1553 21.8018 32.2265 21.816 32.2928 21.8434C32.3592 21.8709 32.4195 21.9112 32.4703 21.962C32.5211 22.0128 32.5614 22.0731 32.5888 22.1394C32.6163 22.2058 32.6304 22.2769 32.6304 22.3488L32.6304 27.6525C32.6304 27.7243 32.6163 27.7955 32.5888 27.8618C32.5614 27.9282 32.5211 27.9885 32.4703 28.0393C32.4195 28.0901 32.3592 28.1304 32.2928 28.1578C32.2265 28.1853 32.1553 28.1994 32.0835 28.1994L26.1369 28.1994C26.0651 28.1994 25.994 28.1853 25.9276 28.1578C25.8612 28.1304 25.8009 28.0901 25.7501 28.0393C25.6994 27.9885 25.6591 27.9282 25.6316 27.8618C25.6041 27.7955 25.59 27.7243 25.5901 27.6525L25.5901 22.3488C25.59 22.2769 25.6041 22.2058 25.6316 22.1394C25.6591 22.0731 25.6994 22.0128 25.7501 21.962C25.8009 21.9112 25.8612 21.8709 25.9276 21.8434C25.994 21.816 26.0651 21.8018 26.1369 21.8019ZM26.6838 27.1056L31.5366 27.1056L31.5366 22.8956L26.6838 22.8956L26.6838 27.1056Z" fill="white"/>
<path d="M8.021 21.8019L13.9676 21.8019C14.0394 21.8018 14.1105 21.816 14.1769 21.8434C14.2433 21.8709 14.3036 21.9112 14.3544 21.962C14.4051 22.0128 14.4454 22.0731 14.4729 22.1394C14.5004 22.2058 14.5145 22.2769 14.5144 22.3488L14.5144 36.3269C14.5145 36.3987 14.5004 36.4698 14.4729 36.5362C14.4454 36.6026 14.4051 36.6629 14.3543 36.7137C14.3036 36.7645 14.2433 36.8047 14.1769 36.8322C14.1105 36.8597 14.0394 36.8738 13.9676 36.8738L8.021 36.8738C7.94917 36.8738 7.87804 36.8597 7.81167 36.8322C7.7453 36.8047 7.685 36.7645 7.63421 36.7137C7.58342 36.6629 7.54313 36.6026 7.51567 36.5362C7.4882 36.4698 7.47408 36.3987 7.47412 36.3269L7.47412 22.3488C7.47408 22.2769 7.4882 22.2058 7.51567 22.1394C7.54314 22.0731 7.58342 22.0128 7.63421 21.962C7.685 21.9112 7.7453 21.8709 7.81167 21.8434C7.87804 21.816 7.94917 21.8018 8.021 21.8019ZM8.56787 35.78L13.4207 35.78L13.4207 22.8956L8.56787 22.8956L8.56787 35.78Z" fill="white"/>
<path d="M17.0835 13.1276L23.021 13.1276C23.0928 13.1275 23.164 13.1416 23.2303 13.1691C23.2967 13.1966 23.357 13.2369 23.4078 13.2876C23.4586 13.3384 23.4989 13.3987 23.5263 13.4651C23.5538 13.5315 23.5679 13.6026 23.5679 13.6744L23.5679 18.9782C23.5679 19.05 23.5538 19.1211 23.5263 19.1875C23.4989 19.2539 23.4586 19.3142 23.4078 19.365C23.357 19.4158 23.2967 19.4561 23.2303 19.4835C23.164 19.511 23.0928 19.5251 23.021 19.5251L17.0835 19.5251C17.0117 19.5251 16.9405 19.511 16.8742 19.4835C16.8078 19.456 16.7475 19.4158 16.6967 19.365C16.6459 19.3142 16.6056 19.2539 16.5782 19.1875C16.5507 19.1211 16.5366 19.05 16.5366 18.9782L16.5366 13.6744C16.5366 13.6026 16.5507 13.5315 16.5782 13.4651C16.6056 13.3987 16.6459 13.3384 16.6967 13.2876C16.7475 13.2369 16.8078 13.1966 16.8742 13.1691C16.9405 13.1416 17.0117 13.1275 17.0835 13.1276ZM17.6307 18.4313L22.4744 18.4313L22.4744 14.2213L17.6307 14.2213L17.6307 18.4313Z" fill="white"/>
<path d="M26.1369 13.1276L32.0835 13.1276C32.1553 13.1275 32.2265 13.1416 32.2928 13.1691C32.3592 13.1966 32.4195 13.2369 32.4703 13.2876C32.5211 13.3384 32.5614 13.3987 32.5888 13.4651C32.6163 13.5315 32.6304 13.6026 32.6304 13.6744L32.6304 18.9782C32.6304 19.05 32.6163 19.1211 32.5888 19.1875C32.5614 19.2539 32.5211 19.3142 32.4703 19.365C32.4195 19.4158 32.3592 19.4561 32.2928 19.4835C32.2265 19.511 32.1553 19.5251 32.0835 19.5251L26.1369 19.5251C26.0651 19.5251 25.994 19.511 25.9276 19.4835C25.8612 19.456 25.8009 19.4158 25.7501 19.365C25.6994 19.3142 25.6591 19.2539 25.6316 19.1875C25.6041 19.1211 25.59 19.05 25.5901 18.9782L25.5901 13.6744C25.59 13.6026 25.6041 13.5315 25.6316 13.4651C25.6591 13.3987 25.6994 13.3384 25.7501 13.2876C25.8009 13.2369 25.8612 13.1966 25.9276 13.1691C25.994 13.1416 26.0651 13.1275 26.1369 13.1276ZM26.6838 18.4313L31.5366 18.4313L31.5366 14.2213L26.6838 14.2213L26.6838 18.4313Z" fill="white"/>
<path d="M8.02099 13.1276L13.9676 13.1276C14.0394 13.1275 14.1105 13.1416 14.1769 13.1691C14.2433 13.1966 14.3036 13.2369 14.3544 13.2876C14.4051 13.3384 14.4454 13.3987 14.4729 13.4651C14.5004 13.5315 14.5145 13.6026 14.5144 13.6744L14.5144 18.9782C14.5145 19.05 14.5004 19.1211 14.4729 19.1875C14.4454 19.2539 14.4051 19.3142 14.3544 19.365C14.3036 19.4158 14.2433 19.4561 14.1769 19.4835C14.1105 19.511 14.0394 19.5251 13.9676 19.5251L8.02099 19.5251C7.94917 19.5251 7.87803 19.511 7.81166 19.4835C7.7453 19.456 7.68499 19.4158 7.6342 19.365C7.58341 19.3142 7.54313 19.2539 7.51566 19.1875C7.48819 19.1211 7.47408 19.05 7.47412 18.9782L7.47412 13.6744C7.47408 13.6026 7.48819 13.5315 7.51566 13.4651C7.54313 13.3987 7.58341 13.3384 7.6342 13.2876C7.68499 13.2369 7.7453 13.1966 7.81167 13.1691C7.87803 13.1416 7.94917 13.1275 8.02099 13.1276ZM8.56787 18.4313L13.4207 18.4313L13.4207 14.2213L8.56787 14.2213L8.56787 18.4313Z" fill="white"/>
</svg>
