<svg width="33" height="33" viewBox="0 0 33 33" fill="none" xmlns="http://www.w3.org/2000/svg">
<g clip-path="url(#clip0)">
<path d="M16.7551 32.8882C25.5917 32.8882 32.7551 25.7247 32.7551 16.8882C32.7551 8.05163 25.5917 0.888184 16.7551 0.888184C7.91857 0.888184 0.755127 8.05163 0.755127 16.8882C0.755127 25.7247 7.91857 32.8882 16.7551 32.8882Z" fill="#65A2D9"/>
<path d="M22.3978 11.2285C19.0655 10.882 15.6864 9.14864 12.661 11.3934C9.96738 13.3328 11.799 16.8883 11.9068 19.6897C11.9824 20.8245 11.7248 21.779 11.3122 22.7441L20.9049 32.3437C26.4051 30.8706 30.7359 26.5404 32.2099 21.0406L22.3978 11.2285Z" fill="#3A7CA5"/>
<path d="M25.1752 18.285C24.8845 17.8832 24.75 17.3927 24.7505 16.8971C24.7505 16.8942 24.7505 16.8913 24.7505 16.8884C24.7505 12.4729 21.1711 8.89355 16.7559 8.89355C15.7897 8.89355 14.8642 9.06549 14.0072 9.37962C13.5437 9.54962 13.0357 9.58218 12.5604 9.44837C12.1406 9.33018 11.6919 9.28018 11.2272 9.3123C9.27542 9.44668 7.70411 11.0462 7.60286 13.0002C7.55467 13.9328 7.83417 14.7979 8.33636 15.4917C8.62674 15.8934 8.76155 16.3839 8.76111 16.8799V16.8886C8.76111 21.3039 12.3402 24.8832 16.7557 24.8832C17.7219 24.8832 18.6474 24.7115 19.5044 24.3972C19.9679 24.2272 20.4759 24.1946 20.9512 24.3284C21.371 24.4469 21.8197 24.4966 22.2844 24.4647C24.2362 24.3305 25.8075 22.7308 25.9087 20.777C25.9569 19.8441 25.6774 18.9789 25.1752 18.285ZM17.0485 15.4549C18.6605 15.8383 21.0964 16.4177 21.0964 19.1009C21.0964 20.4226 20.4454 21.4311 19.2634 21.9402C18.42 22.3034 17.4653 22.3524 16.6425 22.3524C14.1144 22.3524 12.518 20.3867 12.451 20.3031C12.0369 19.7839 12.1222 19.0272 12.6415 18.6131C13.1608 18.1991 13.9175 18.2843 14.3314 18.8036C14.335 18.8079 15.2899 19.9047 16.6424 19.9476C18.271 19.9991 18.6431 19.5146 18.6913 19.101C18.7501 18.5958 18.3007 18.2251 16.4918 17.7947C14.9584 17.4302 12.6411 16.879 12.6411 14.4079C12.6411 13.6382 12.9541 11.1274 16.9816 11.1274C19.5248 11.1274 21.0261 13.1296 21.0888 13.2148C21.482 13.75 21.3672 14.5026 20.832 14.8959C20.2994 15.2876 19.5514 15.1756 19.1565 14.6469C19.1282 14.6106 18.2689 13.6545 16.9816 13.5323C16.0077 13.4397 15.0461 13.7911 15.0461 14.3099C15.0464 14.8595 15.3225 15.0444 17.0485 15.4549Z" fill="white"/>
<path d="M18.6922 19.1008C18.746 18.6398 18.3758 18.2907 16.9361 17.9061V19.9509C18.3174 19.9382 18.647 19.4884 18.6922 19.1008Z" fill="white"/>
<path d="M25.1744 18.2847C24.8837 17.8829 24.7492 17.3924 24.7497 16.8968C24.7497 16.8938 24.7497 16.8909 24.7497 16.888C24.7497 12.5328 21.2666 8.99352 16.9346 8.89771V11.1279C16.9504 11.1278 16.9651 11.127 16.981 11.127C19.5242 11.127 21.0255 13.1292 21.0882 13.2145C21.4814 13.7496 21.3666 14.5022 20.8314 14.8956C20.2987 15.2872 19.5508 15.1753 19.1559 14.6466C19.1276 14.6103 18.2683 13.6541 16.981 13.5319C16.9655 13.5304 16.9501 13.5301 16.9346 13.5288V15.4274C16.9718 15.4363 17.009 15.4454 17.0477 15.4545C18.6596 15.8379 21.0955 16.4172 21.0955 19.1006C21.0955 20.4223 20.4445 21.4308 19.2626 21.9398C18.5175 22.2607 17.6856 22.3363 16.9346 22.3496V24.8786C17.8356 24.8586 18.6999 24.6912 19.5035 24.3965C19.967 24.2265 20.475 24.1939 20.9503 24.3277C21.3701 24.4462 21.8187 24.4959 22.2834 24.4641C24.2352 24.3298 25.8066 22.7301 25.9078 20.7763C25.9561 19.8438 25.6766 18.9786 25.1744 18.2847Z" fill="#D1D1D1"/>
<path d="M15.0451 14.3096C15.0451 14.8469 15.3099 15.0358 16.9342 15.4275V13.529C15.9764 13.4516 15.0451 13.799 15.0451 14.3096Z" fill="white"/>
</g>
<defs>
<clipPath id="clip0">
<rect width="32" height="32" fill="white" transform="translate(0.755127 0.888184)"/>
</clipPath>
</defs>
</svg>
