<svg width="33" height="33" viewBox="0 0 33 33" fill="none" xmlns="http://www.w3.org/2000/svg">
<g clip-path="url(#clip0)">
<path d="M16.7551 32.8882C25.5917 32.8882 32.7551 25.7247 32.7551 16.8882C32.7551 8.05163 25.5917 0.888184 16.7551 0.888184C7.91857 0.888184 0.755127 8.05163 0.755127 16.8882C0.755127 25.7247 7.91857 32.8882 16.7551 32.8882Z" fill="#6F3FAA"/>
<path d="M23.6965 9.66573C19.802 8.7251 15.9005 7.62485 11.9067 9.02273C9.3208 9.99241 9.3208 12.7938 9.42855 15.1642C9.42855 15.8106 8.67436 16.6726 8.99755 17.4268C9.64399 19.5817 10.1827 21.7365 12.4454 22.814C12.7686 23.0295 12.4454 23.4604 12.6609 23.7837C12.5531 23.7837 12.3376 23.8914 12.3376 23.9992C12.3376 24.5156 12.5694 25.3055 12.4154 25.8148L19.2908 32.6873C26.3589 31.5617 31.8832 25.808 32.6604 18.6297L23.6965 9.66573Z" fill="#512D84"/>
<path d="M25.2189 12.1331L25.2136 12.112C24.7861 10.3836 22.8588 8.52915 21.0888 8.14333L21.0688 8.13921C18.206 7.59308 15.3031 7.59308 12.4409 8.13921L12.4203 8.14333C10.651 8.52915 8.72352 10.3838 8.29546 12.112L8.29071 12.1331C7.76221 14.5466 7.76221 16.9944 8.29071 19.408L8.29546 19.4291C8.70533 21.0836 10.4891 22.853 12.1931 23.3395V25.2688C12.1931 25.9671 13.044 26.31 13.5279 25.8061L15.4826 23.7743C15.9066 23.798 16.3308 23.8112 16.7548 23.8112C18.1959 23.8112 19.6376 23.6749 21.0688 23.4019L21.0887 23.3978C22.8587 23.012 24.7861 21.1573 25.2136 19.4291L25.2188 19.408C25.7473 16.9944 25.7473 14.5468 25.2189 12.1331ZM23.672 19.058C23.3865 20.1856 21.9231 21.5873 20.7604 21.8463C19.2382 22.1358 17.7039 22.2595 16.1711 22.2171C16.1406 22.2162 16.1113 22.2281 16.0901 22.25C15.8726 22.4732 14.663 23.7151 14.663 23.7151L13.145 25.2731C13.034 25.3888 12.839 25.31 12.839 25.1503V21.9543C12.839 21.9015 12.8013 21.8567 12.7494 21.8465C12.7491 21.8463 12.7488 21.8463 12.7485 21.8463C11.5858 21.5873 10.1229 20.1855 9.83696 19.058C9.36127 16.8763 9.36127 14.6647 9.83696 12.4831C10.1229 11.3555 11.5858 9.95377 12.7485 9.69477C15.407 9.18914 18.1025 9.18914 20.7605 9.69477C21.9238 9.95377 23.3866 11.3555 23.672 12.4831C24.1482 14.6648 24.1482 16.8764 23.672 19.058Z" fill="white"/>
<path d="M19.2841 20.5334C19.1054 20.4791 18.9351 20.4426 18.7768 20.3771C17.1373 19.6969 15.6286 18.8194 14.4335 17.4743C13.7539 16.7094 13.2219 15.8459 12.7723 14.932C12.5591 14.4986 12.3794 14.0483 12.1962 13.6008C12.0292 13.1928 12.2752 12.7713 12.5342 12.4638C12.7773 12.1753 13.0901 11.9545 13.4288 11.7917C13.6932 11.6647 13.9539 11.7379 14.1471 11.962C14.5644 12.4465 14.9479 12.9558 15.2583 13.5174C15.4493 13.8628 15.3969 14.2851 15.0508 14.5201C14.9667 14.5773 14.8901 14.6444 14.8118 14.7089C14.743 14.7654 14.6784 14.8226 14.6313 14.8991C14.5452 15.0392 14.5411 15.2045 14.5964 15.3568C15.0231 16.5294 15.7423 17.4413 16.9226 17.9325C17.1115 18.011 17.3011 18.1025 17.5188 18.0771C17.8831 18.0346 18.0011 17.6348 18.2565 17.426C18.5061 17.222 18.8251 17.2193 19.0939 17.3894C19.3628 17.5596 19.6234 17.7423 19.8826 17.9269C20.1369 18.1082 20.3901 18.2854 20.6247 18.4921C20.8503 18.6908 20.928 18.9514 20.8009 19.221C20.5684 19.7148 20.23 20.1255 19.7419 20.3877C19.6041 20.4616 19.4395 20.4855 19.2841 20.5334C19.1054 20.4791 19.4395 20.4855 19.2841 20.5334Z" fill="white"/>
<path d="M16.7587 11.227C18.9031 11.2872 20.6644 12.7102 21.0418 14.8302C21.1061 15.1915 21.129 15.5607 21.1576 15.9274C21.1697 16.0816 21.0823 16.2281 20.9159 16.2302C20.7441 16.2322 20.6667 16.0884 20.6555 15.9343C20.6334 15.6292 20.6181 15.3226 20.5761 15.0201C20.3541 13.4227 19.0804 12.1011 17.4904 11.8175C17.251 11.7749 17.0063 11.7637 16.7639 11.7382C16.6107 11.7222 16.41 11.7129 16.3761 11.5224C16.3477 11.3627 16.4824 11.2356 16.6345 11.2274C16.6757 11.225 16.7172 11.2269 16.7587 11.227C18.9032 11.2872 16.7172 11.2269 16.7587 11.227Z" fill="white"/>
<path d="M20.0177 15.4516C20.0141 15.4784 20.0123 15.5413 19.9966 15.6006C19.9397 15.8158 19.6132 15.8428 19.5381 15.6256C19.5158 15.5611 19.5125 15.4878 19.5124 15.4184C19.5116 14.9643 19.413 14.5105 19.1839 14.1153C18.9485 13.7091 18.5887 13.3678 18.1669 13.1611C17.9118 13.0363 17.636 12.9586 17.3563 12.9124C17.2341 12.8921 17.1106 12.88 16.9878 12.8628C16.839 12.8421 16.7595 12.7473 16.7666 12.6007C16.7732 12.4633 16.8736 12.3644 17.0234 12.373C17.5155 12.4008 17.9908 12.5073 18.4284 12.739C19.318 13.2101 19.8263 13.9538 19.9746 14.9468C19.9813 14.9919 19.9921 15.0364 19.9955 15.0815C20.0039 15.1929 20.0092 15.3045 20.0177 15.4516C20.0141 15.4783 20.0092 15.3045 20.0177 15.4516Z" fill="white"/>
<path d="M18.6836 15.3995C18.5042 15.4028 18.4082 15.3034 18.3897 15.139C18.3769 15.0244 18.3666 14.9082 18.3392 14.7965C18.2854 14.5767 18.1685 14.3731 17.9837 14.2384C17.8964 14.1749 17.7975 14.1285 17.6939 14.0985C17.5624 14.0605 17.4256 14.071 17.2944 14.0389C17.1519 14.0039 17.073 13.8884 17.0954 13.7547C17.1158 13.633 17.2342 13.538 17.3672 13.5477C18.1986 13.6077 18.7928 14.0375 18.8776 15.0162C18.8837 15.0853 18.8907 15.1582 18.8754 15.2244C18.849 15.3374 18.7652 15.394 18.6836 15.3995C18.5042 15.4027 18.7652 15.394 18.6836 15.3995Z" fill="white"/>
<path d="M25.2196 12.1337L25.2144 12.1126C24.9748 11.1438 24.2636 10.1354 23.3733 9.36816L22.1696 10.4349C22.8853 11.0052 23.4986 11.7953 23.6728 12.4837C24.1491 14.6654 24.1491 16.8769 23.6728 19.0587C23.3874 20.1862 21.9239 21.588 20.7613 21.847C19.2391 22.1365 17.7048 22.2602 16.172 22.2177C16.1415 22.2169 16.1122 22.2287 16.091 22.2506C15.8734 22.4739 14.6638 23.7157 14.6638 23.7157L13.1458 25.2737C13.0348 25.3895 12.8398 25.3108 12.8398 25.151V21.955C12.8398 21.9022 12.8021 21.8574 12.7503 21.8471C12.7499 21.8471 12.7497 21.847 12.7494 21.847C12.0886 21.6998 11.3311 21.1834 10.7476 20.5582L9.55825 21.6121C10.3011 22.4202 11.2591 23.0734 12.1938 23.3403V25.2695C12.1938 25.9678 13.0447 26.3108 13.5286 25.8069L15.4833 23.775C15.9073 23.7987 16.3313 23.812 16.7555 23.812C18.1966 23.812 19.6383 23.6757 21.0694 23.4027L21.0894 23.3986C22.8594 23.0128 24.7868 21.1583 25.2143 19.43L25.2195 19.4089C25.7481 16.995 25.7481 14.5474 25.2196 12.1337Z" fill="#D1D1D1"/>
<path d="M19.2839 20.5335C19.4393 20.4856 19.1051 20.4792 19.2839 20.5335V20.5335Z" fill="white"/>
<path d="M20.6257 18.4924C20.3911 18.2858 20.1378 18.1085 19.8835 17.9273C19.6244 17.7426 19.3638 17.56 19.0948 17.3897C18.826 17.2196 18.5071 17.2223 18.2575 17.4263C18.0021 17.6351 17.8842 18.0349 17.5197 18.0775C17.3022 18.1028 17.1125 18.0113 16.9236 17.9328C16.1974 17.6306 15.6464 17.1686 15.23 16.5853L14.345 17.3697C14.375 17.4045 14.4037 17.4403 14.4343 17.4746C15.6294 18.8197 17.1382 19.6972 18.7775 20.3774C18.9357 20.443 19.1062 20.4795 19.2849 20.5337C19.1062 20.4794 19.4404 20.4859 19.2849 20.5337C19.4404 20.4859 19.6049 20.4618 19.7428 20.388C20.231 20.1257 20.5694 19.715 20.8019 19.2212C20.929 18.9517 20.8513 18.6911 20.6257 18.4924Z" fill="#D1D1D1"/>
<path d="M16.7646 11.229C16.7629 11.229 16.7613 11.2288 16.7597 11.2288C16.758 11.2287 16.7601 11.2288 16.7646 11.229Z" fill="white"/>
<path d="M16.7592 11.2275C16.761 11.2275 16.7627 11.2277 16.7645 11.2277C16.8835 11.232 18.819 11.2853 16.7592 11.2275Z" fill="white"/>
<path d="M19.8351 12.5031L19.4578 12.8375C20.0507 13.4144 20.4596 14.1789 20.5765 15.0203C20.6185 15.3229 20.6339 15.6294 20.656 15.9345C20.6672 16.0887 20.7444 16.2325 20.9164 16.2305C21.0829 16.2284 21.1702 16.082 21.1581 15.9277C21.1294 15.5611 21.1066 15.1917 21.0423 14.8306C20.8771 13.9026 20.4467 13.1081 19.8351 12.5031Z" fill="#D1D1D1"/>
<path d="M19.9748 14.947C19.8668 14.2234 19.5666 13.6329 19.0679 13.183L18.6917 13.5164C18.8863 13.6891 19.0546 13.8919 19.1842 14.1156C19.4133 14.5108 19.5119 14.9645 19.5127 15.4187C19.5128 15.488 19.5161 15.5614 19.5384 15.626C19.6136 15.8433 19.94 15.8164 19.9969 15.601C20.0126 15.5416 20.0144 15.4787 20.018 15.452C20.0144 15.4788 20.0094 15.3049 20.018 15.452C20.0094 15.3049 20.0041 15.1933 19.9957 15.0818C19.9924 15.0365 19.9816 14.992 19.9748 14.947Z" fill="#D1D1D1"/>
<path d="M20.0186 15.4517C20.0101 15.3046 20.0151 15.4784 20.0186 15.4517V15.4517Z" fill="white"/>
<path d="M18.6849 15.3997C18.6877 15.3995 18.6904 15.398 18.6931 15.3977C18.6855 15.3977 18.6739 15.3979 18.662 15.3983C18.6697 15.3985 18.6768 15.3997 18.6849 15.3997Z" fill="white"/>
<path d="M18.6846 15.3994C18.6765 15.3995 18.6694 15.3983 18.6616 15.3981C18.6228 15.3991 18.5827 15.4012 18.6846 15.3994Z" fill="white"/>
<path d="M18.6928 15.3977C18.69 15.398 18.6873 15.3995 18.6846 15.3996C18.7056 15.3982 18.7038 15.3977 18.6928 15.3977Z" fill="white"/>
<path d="M18.3065 13.8586L17.9235 14.1981C17.9446 14.211 17.9653 14.2243 17.9854 14.2389C18.1703 14.3736 18.2871 14.5772 18.341 14.797C18.3683 14.9086 18.3785 15.0248 18.3914 15.1395C18.4091 15.2966 18.4983 15.3931 18.6624 15.3988C18.6743 15.3985 18.6861 15.3982 18.6935 15.3981C18.7725 15.3894 18.8517 15.334 18.877 15.2248C18.8923 15.1587 18.8853 15.0856 18.8793 15.0166C18.8317 14.4694 18.6248 14.094 18.3065 13.8586Z" fill="#D1D1D1"/>
</g>
<defs>
<clipPath id="clip0">
<rect width="32" height="32" fill="white" transform="translate(0.755127 0.888184)"/>
</clipPath>
</defs>
</svg>
