<svg width="33" height="33" viewBox="0 0 33 33" fill="none" xmlns="http://www.w3.org/2000/svg">
<g clip-path="url(#clip0)">
<path d="M16.4531 32.3584C25.2897 32.3584 32.4531 25.195 32.4531 16.3584C32.4531 7.52184 25.2897 0.358398 16.4531 0.358398C7.61657 0.358398 0.453125 7.52184 0.453125 16.3584C0.453125 25.195 7.61657 32.3584 16.4531 32.3584Z" fill="#4D76A1"/>
<path d="M24.7494 12.8406C23.8554 14.2698 23.2209 15.7895 22.5396 17.3265C21.5772 16.4079 20.7989 15.6995 20.7989 15.6995H18.1304L14.5784 12.7222L16.5736 18.9918L10.8505 15.4438L7.77894 16.8796L16.7005 24.358C14.9073 22.8549 12.9622 23.1949 14.9073 24.8136L22.4976 31.176C28.1522 29.2405 32.1891 24.6713 32.4394 19.2866L24.7494 12.8406Z" fill="#346394"/>
<path fill-rule="evenodd" clip-rule="evenodd" d="M14.9699 24.7201H16.3769C16.3769 24.7201 16.8019 24.6735 17.0189 24.4395C17.2186 24.2248 17.2122 23.8215 17.2122 23.8215C17.2122 23.8215 17.1847 21.9336 18.061 21.6555C18.9248 21.3817 20.0339 23.4802 21.2096 24.2871C22.0986 24.8978 22.7742 24.7639 22.7742 24.7639L25.9177 24.7201C25.9177 24.7201 27.5621 24.6188 26.7824 23.3259C26.7185 23.2201 26.3283 22.3694 24.4451 20.6214C22.4741 18.792 22.7381 19.0879 25.1124 15.9233C26.5584 13.996 27.1365 12.8194 26.9559 12.3155C26.7837 11.8355 25.7202 11.9623 25.7202 11.9623L22.1807 11.9844C22.1807 11.9844 21.9184 11.9486 21.7238 12.0649C21.5336 12.179 21.4112 12.4449 21.4112 12.4449C21.4112 12.4449 20.8511 13.9363 20.1039 15.2046C18.5279 17.8809 17.8977 18.0222 17.6401 17.856C17.0409 17.4687 17.1905 16.3 17.1905 15.4698C17.1905 12.8763 17.5839 11.7949 16.4245 11.515C16.0398 11.422 15.7566 11.3606 14.7727 11.3507C13.5098 11.3376 12.4409 11.3545 11.8356 11.6511C11.433 11.8483 11.1224 12.2877 11.3116 12.3129C11.5455 12.3442 12.0753 12.4557 12.3562 12.8383C12.7189 13.3317 12.7061 14.4399 12.7061 14.4399C12.7061 14.4399 12.9145 17.493 12.2194 17.8723C11.7423 18.1324 11.0879 17.6013 9.68277 15.1733C8.9628 13.9296 8.41923 12.5548 8.41923 12.5548C8.41923 12.5548 8.31441 12.2979 8.12747 12.1605C7.90059 11.994 7.58358 11.9409 7.58358 11.9409L4.22022 11.963C4.22022 11.963 3.71531 11.977 3.52997 12.1966C3.36508 12.3918 3.51687 12.7958 3.51687 12.7958C3.51687 12.7958 6.15004 18.9562 9.13153 22.0607C11.8654 24.9071 14.9699 24.7201 14.9699 24.7201Z" fill="white"/>
</g>
<defs>
<clipPath id="clip0">
<rect width="32" height="32" fill="white" transform="translate(0.453125 0.358398)"/>
</clipPath>
</defs>
</svg>
