<svg width="25" height="26" viewBox="0 0 25 26" fill="none" xmlns="http://www.w3.org/2000/svg">
<path d="M22.7242 8.58272C22.2044 8.06864 21.3781 8.03634 20.8194 8.48632C20.7386 8.5514 20.8011 8.49405 19.5709 9.70999L22.7644 12.8663L23.9121 11.7461C24.467 11.1977 24.467 10.3053 23.9121 9.75683L22.7242 8.58272Z" fill="#179EFF"/>
<path d="M13.0219 16.2425L11.1434 20.221C11.0168 20.4891 11.0734 20.8067 11.285 21.0158C11.4966 21.225 11.8181 21.2808 12.0892 21.1558L16.1147 19.2991C16.274 19.2256 15.7918 19.6716 21.7517 13.8548L18.5645 10.7047C12.6554 16.545 13.0977 16.082 13.0219 16.2425Z" fill="#179EFF"/>
<path d="M17.3136 20.163C17.1393 20.333 16.9384 20.4711 16.7165 20.5735L12.691 22.4302C11.8994 22.7953 10.9323 22.6563 10.2787 22.0102C9.64631 21.3851 9.47547 20.427 9.85367 19.6259L11.7323 15.6472C11.8378 15.4238 11.9808 15.2221 12.1572 15.0477L18.209 9.06641V3.10675C18.209 1.94334 17.2514 0.996826 16.0742 0.996826H2.17413C0.996989 0.996826 0.0393066 1.94334 0.0393066 3.10675V22.8932C0.0393066 24.0566 0.996989 25.0031 2.17413 25.0031H16.0742C17.2514 25.0031 18.209 24.0566 18.209 22.8932V19.2889L17.3136 20.163ZM3.8346 5.54489H14.4613C14.8543 5.54489 15.1729 5.85979 15.1729 6.2482C15.1729 6.63662 14.8543 6.95151 14.4613 6.95151H3.8346C3.4416 6.95151 3.12299 6.63662 3.12299 6.2482C3.12299 5.85979 3.4416 5.54489 3.8346 5.54489ZM3.8346 9.29587H12.1841C12.5771 9.29587 12.8957 9.61077 12.8957 9.99918C12.8957 10.3876 12.5771 10.7025 12.1841 10.7025H3.8346C3.4416 10.7025 3.12299 10.3876 3.12299 9.99918C3.12299 9.61077 3.4416 9.29587 3.8346 9.29587ZM3.12299 13.7502C3.12299 13.3618 3.4416 13.0469 3.8346 13.0469H9.90699C10.3 13.0469 10.6186 13.3618 10.6186 13.7502C10.6186 14.1386 10.3 14.4535 9.90699 14.4535H3.8346C3.4416 14.4535 3.12299 14.1386 3.12299 13.7502Z" fill="#179EFF"/>
</svg>
