<svg width="42" height="40" viewBox="0 0 42 40" fill="none" xmlns="http://www.w3.org/2000/svg">
<path d="M13.9192 33.8922H15.6161C16.111 33.8922 16.5135 33.4982 16.5135 33.0139V32.6498H16.8855C17.3802 32.6498 17.7828 32.2558 17.7828 31.7715V30.1128C17.7828 29.6285 17.3802 29.2345 16.8855 29.2345H16.5135V28.8703C16.5135 28.386 16.111 27.9921 15.6161 27.9921H13.9192C13.4255 27.9921 13.024 28.386 13.024 28.8703V29.2345H12.6521C12.1573 29.2345 11.7548 29.6285 11.7548 30.1128V31.7715C11.7548 32.2558 12.1573 32.6498 12.6521 32.6498H13.024V33.0139C13.024 33.4982 13.4256 33.8922 13.9192 33.8922ZM12.9521 31.478V30.4065H13.6227C13.9534 30.4065 14.2214 30.1442 14.2214 29.8206V29.1641H15.3162V29.8205C15.3162 30.1441 15.5841 30.4064 15.9148 30.4064H16.5854V31.4779H15.9148C15.5841 31.4779 15.3162 31.7402 15.3162 32.0638V32.7202H14.2214V32.0638C14.2214 31.7402 13.9534 31.4779 13.6227 31.4779H12.9521V31.478Z" fill="white"/>
<path d="M16.3311 36.4279H19.3834C20.4447 36.4279 21.308 35.5829 21.308 34.5442V27.6281C21.308 26.5907 20.4447 25.7466 19.3834 25.7466H10.369C9.30899 25.7466 8.44666 26.5906 8.44666 27.6281V34.5442C8.44666 35.5829 9.30899 36.4279 10.369 36.4279H13.5955C13.9262 36.4279 14.1942 36.1655 14.1942 35.8419C14.1942 35.5184 13.9262 35.256 13.5955 35.256H10.369C9.96921 35.256 9.64401 34.9367 9.64401 34.5442V27.6281C9.64401 27.2369 9.96921 26.9185 10.369 26.9185H19.3834C19.7844 26.9185 20.1106 27.2368 20.1106 27.6281V34.5442C20.1106 34.9367 19.7844 35.256 19.3834 35.256H16.3311C16.0004 35.256 15.7325 35.5184 15.7325 35.8419C15.7325 36.1655 16.0004 36.4279 16.3311 36.4279Z" fill="white"/>
<path d="M29.9696 7.03351H29.9613C29.6306 7.03351 29.3626 7.29585 29.3626 7.61944C29.3626 7.94304 29.6306 8.20538 29.9613 8.20538H29.9696C30.3003 8.20538 30.5683 7.94304 30.5683 7.61944C30.5683 7.29585 30.3003 7.03351 29.9696 7.03351Z" fill="white"/>
<path d="M33.0481 0.633362H33.0386C32.7078 0.633362 32.4399 0.895706 32.4399 1.2193C32.4399 1.54289 32.7078 1.80524 33.0386 1.80524H33.0481C33.3788 1.80524 33.6467 1.54289 33.6467 1.2193C33.6467 0.895706 33.3787 0.633362 33.0481 0.633362Z" fill="white"/>
<path d="M36.1159 1.17188H36.1209C36.4516 1.17188 36.7171 0.909531 36.7171 0.585938C36.7171 0.262344 36.4465 0 36.1159 0C35.7853 0 35.5172 0.262344 35.5172 0.585938C35.5172 0.909531 35.7852 1.17188 36.1159 1.17188Z" fill="white"/>
<path d="M29.9636 2.43637H29.9704C30.3011 2.43637 30.5656 2.17403 30.5656 1.85043C30.5656 1.52684 30.2943 1.2645 29.9636 1.2645C29.6329 1.2645 29.3649 1.52684 29.3649 1.85043C29.3649 2.17403 29.633 2.43637 29.9636 2.43637Z" fill="white"/>
<path d="M28.3889 4.14462C28.0582 4.14462 27.7902 4.40806 27.7902 4.73165C27.7902 5.05525 28.0582 5.31759 28.3889 5.31759C28.7196 5.31759 28.9876 5.05525 28.9876 4.73165V4.72947C28.9876 4.40587 28.7195 4.14462 28.3889 4.14462Z" fill="white"/>
<path d="M33.0386 7.66687C32.7078 7.66687 32.4399 7.92921 32.4399 8.25281C32.4399 8.5764 32.7078 8.83874 33.0386 8.83874H33.0425C33.3732 8.83874 33.6392 8.5764 33.6392 8.25281C33.6392 7.92921 33.3692 7.66687 33.0386 7.66687Z" fill="white"/>
<path d="M36.1159 8.30023C35.7852 8.30023 35.5172 8.56258 35.5172 8.88617C35.5172 9.20976 35.7852 9.47211 36.1159 9.47211H36.1208C36.4515 9.47211 36.717 9.20976 36.717 8.88617C36.717 8.56258 36.4465 8.30023 36.1159 8.30023Z" fill="white"/>
<path d="M31.9435 4.14352C31.6128 4.14352 31.3448 4.40587 31.3448 4.72946C31.3448 5.05306 31.6128 5.3154 31.9435 5.3154H31.9513C32.2821 5.3154 32.5461 5.05306 32.5461 4.72946C32.5461 4.40587 32.2742 4.14352 31.9435 4.14352Z" fill="white"/>
<path d="M35.9214 5.14155C36.1552 4.91272 36.154 4.5428 35.9202 4.31405C35.6864 4.08522 35.3063 4.0864 35.0724 4.31514C34.8386 4.54397 34.8386 4.91499 35.0724 5.14374C35.1893 5.25811 35.3426 5.31538 35.4958 5.31538C35.6489 5.31538 35.8022 5.25819 35.9191 5.14374L35.9214 5.14155Z" fill="white"/>
<path d="M24.8545 2.87233H24.2178V2.64108C24.2178 2.31749 23.9498 2.05515 23.6191 2.05515H9.09965C8.93051 2.05515 8.76918 2.12515 8.65567 2.24796L6.67837 4.38694C6.537 4.5396 6.40322 4.68202 6.27806 4.81507C5.41485 5.73327 4.89384 6.28749 5.072 6.95007C5.22582 7.5221 5.84334 7.78945 6.48743 7.99304C7.75894 8.39593 8.40822 9.18632 8.65863 10.6359C8.70732 10.9178 8.95685 11.1242 9.249 11.1242H10.0487V12.9309H8.11096C7.50757 12.9309 7.01674 13.4113 7.01674 14.0019V17.2152C7.01674 17.4977 7.12993 17.7543 7.3132 17.9459C7.3132 17.9459 4.99051 22.3821 4.93183 22.4748C4.67696 22.8779 4.57311 23.128 4.57311 23.9913L4.56856 28.6774C4.56824 29.001 4.83605 29.2636 5.16667 29.2639H5.16723C5.49762 29.2639 5.76559 29.0019 5.76591 28.6785L5.77046 23.992C5.77046 23.3755 5.80853 23.3153 5.9499 23.0916C6.01464 22.9893 8.4799 18.2862 8.4799 18.2862H17.3198C18.3387 20.456 20.0201 22.0813 22.4487 23.2471C23.9521 23.9671 24.0136 25.3243 23.9929 27.6611C23.9909 27.8801 23.9889 28.1019 23.9889 28.3259V38.1519C23.9889 38.5249 23.6799 38.8283 23.3001 38.8283H6.4456C6.26273 38.8283 6.08975 38.7574 5.95852 38.6284C5.82785 38.5002 5.75625 38.3316 5.75681 38.1527L5.76583 31.3539C5.76623 31.0303 5.49858 30.7677 5.16795 30.7672C5.16763 30.7672 5.16739 30.7672 5.16715 30.7672C4.83684 30.7672 4.56896 31.0291 4.56848 31.3524L4.55946 38.15C4.55778 38.6416 4.75359 39.1053 5.11048 39.4558C5.46809 39.8067 5.94224 40 6.4456 40H23.3001C24.3401 40 25.1862 39.1709 25.1862 38.1517V28.3257C25.1862 28.1052 25.1881 27.8867 25.1901 27.6711C25.2093 25.5093 25.2292 23.2738 22.9754 22.1945C20.8804 21.1889 19.4566 19.8684 18.5417 18.0711C18.8084 17.8755 18.982 17.5652 18.982 17.2152V14.0018C18.982 13.4112 18.4901 12.9309 17.8856 12.9309H15.3618V11.1241H15.5392C15.7147 11.1241 15.8813 11.0488 15.995 10.918C16.7957 9.99773 17.7478 9.43656 19.1738 9.12937C19.1947 11.0121 19.5216 13.0117 21.0577 15.0511C21.7315 15.9473 22.6574 16.2898 23.449 16.2898C23.9273 16.2898 24.3568 16.1646 24.6516 15.9609C25.1992 15.5826 25.3275 14.9506 24.9642 14.4252C23.6286 12.4845 22.9908 10.5415 23.0647 8.64398C23.5804 8.39281 24.1262 7.92929 24.2075 7.29515H24.8546C25.8646 7.29515 26.6864 6.49085 26.6864 5.50226V4.66515C26.6864 3.67663 25.8646 2.87233 24.8545 2.87233ZM17.7847 14.1028V17.1142H17.7113H8.21409V14.1028H10.6473H14.7631H17.7847ZM11.246 12.9309V11.1242H14.1644V12.9309H11.246ZM15.2698 9.95226H9.73688C9.33752 8.35405 8.41237 7.37116 6.85582 6.87796C6.51952 6.77171 6.35157 6.69023 6.27031 6.64124C6.39412 6.42241 9.3653 3.22694 9.3653 3.22694H23.0204V7.13218C23.0204 7.27062 22.719 7.53882 22.3914 7.65491C19.2905 7.70405 16.9961 8.12007 15.2698 9.95226ZM23.9315 15.0222C23.8479 15.0686 23.6852 15.1252 23.4493 15.1252C23.4445 15.1252 23.4399 15.1252 23.4352 15.1251C23.1822 15.1227 22.5381 15.043 22.0217 14.3562C20.6984 12.5993 20.3737 10.8994 20.3703 8.9414C20.8256 8.89195 21.3205 8.85866 21.8631 8.84023C21.8453 10.8762 22.553 12.9983 23.9315 15.0222ZM25.4891 5.50226C25.4891 5.84468 25.2045 6.12327 24.8546 6.12327H24.2179V4.04421H24.8546C25.2045 4.04421 25.4891 4.3228 25.4891 4.66523V5.50226Z" fill="white"/>
</svg>
