<svg width="40" height="40" viewBox="0 0 40 40" fill="none" xmlns="http://www.w3.org/2000/svg">
<path d="M34.6627 15.2456V10.5544H16.1194V15.2456H13.8173V17.5913H12.6653C10.7617 17.5913 9.21296 19.1692 9.21296 21.1088V36.4824C9.21296 37.1296 8.69615 37.6562 8.06094 37.6562C7.42574 37.6562 6.90885 37.1297 6.90885 36.4825V15.2419H9.20736V12.8981H6.90885V9.38251H4.6085V12.8981H2.31V15.2419H4.6085V36.4825C4.6085 38.422 6.15718 40 8.06079 40C9.9644 40 11.5132 38.422 11.5132 36.4825V21.1088C11.5132 20.4616 12.03 19.935 12.6652 19.935H13.8171V40H36.9647V15.2456H34.6627ZM18.4198 12.8981H32.3624V15.2456H18.4198V12.8981ZM34.6645 37.6563H16.1176V17.5894H34.6645V37.6563Z" fill="white"/>
<path d="M20.9829 6.55039L22.6096 8.20766C23.3541 7.44906 24.342 7.03125 25.3911 7.03125C26.4403 7.03125 27.4281 7.44898 28.1726 8.2075L29.7991 6.55023C28.6202 5.34906 27.0548 4.6875 25.3911 4.6875C23.7274 4.6875 22.1619 5.34914 20.9829 6.55039Z" fill="white"/>
<path d="M25.3911 2.34375C27.6673 2.34375 29.8098 3.24961 31.4243 4.89437L33.0508 3.23711C31.0019 1.14961 28.2816 0 25.3911 0C22.5005 0 19.7801 1.14969 17.7313 3.23734L19.3579 4.89461C20.9723 3.24969 23.115 2.34375 25.3911 2.34375Z" fill="white"/>
<path d="M25.3911 34.7237C29.234 34.7237 32.3605 31.5384 32.3605 27.6228C32.3605 23.7073 29.2341 20.5218 25.3911 20.5218C21.548 20.5218 18.4216 23.7073 18.4216 27.6228C18.4216 31.5384 21.5481 34.7237 25.3911 34.7237ZM25.3911 32.38C24.5201 32.38 23.7045 32.1351 23.0059 31.7103L29.4029 25.1927C29.8198 25.9044 30.0602 26.7355 30.0602 27.6229C30.0602 30.2459 27.9656 32.38 25.3911 32.38ZM25.3911 22.8656C26.2621 22.8656 27.0777 23.1105 27.7763 23.5354L21.3793 30.053C20.9624 29.3412 20.722 28.5102 20.722 27.6228C20.722 24.9997 22.8165 22.8656 25.3911 22.8656Z" fill="white"/>
</svg>
