<svg width="40" height="40" viewBox="0 0 40 40" fill="none" xmlns="http://www.w3.org/2000/svg">
<g clip-path="url(#clip0)">
<path d="M37.981 1.48438H8.71552C7.60223 1.48438 6.69678 2.39014 6.69678 3.50342V6.5683H2.01904C0.905762 6.5683 0 7.47406 0 8.58734V34.567C0 36.7261 1.74957 38.4845 3.90594 38.5001H3.91388C3.9209 38.5004 3.92731 38.501 3.93433 38.501H24.6616C24.985 38.501 25.2475 38.2388 25.2475 37.915C25.2475 37.5916 24.985 37.3291 24.6616 37.3291H6.73309C7.43469 36.6183 7.86865 35.6424 7.86865 34.567V20.8649C7.86865 20.5414 7.6062 20.2789 7.28271 20.2789C6.95892 20.2789 6.69678 20.5414 6.69678 20.8649V34.567C6.69678 36.0849 5.4657 37.3206 3.94928 37.3288C3.9444 37.3288 3.93951 37.3282 3.93433 37.3282C2.41119 37.3279 1.17188 36.0892 1.17188 34.567V8.58734C1.17188 8.12042 1.55182 7.74017 2.01904 7.74017H6.69678V18.6774C6.69678 19.0012 6.95892 19.2633 7.28271 19.2633C7.6062 19.2633 7.86865 19.0012 7.86865 18.6774V3.50342C7.86865 3.03619 8.2486 2.65625 8.71552 2.65625H37.981C38.4482 2.65625 38.8281 3.03619 38.8281 3.50342V34.567C38.8281 36.0901 37.5888 37.3291 36.0657 37.3291H26.8491C26.5253 37.3291 26.2631 37.5916 26.2631 37.915C26.2631 38.2388 26.5253 38.501 26.8491 38.501H36.0657C38.2352 38.501 40 36.7361 40 34.567V3.50342C40 2.39014 39.0942 1.48438 37.981 1.48438V1.48438Z" fill="white"/>
<path d="M12.8375 24.8642H20.8737C21.6382 24.8642 22.2601 24.2422 22.2601 23.4778V15.4416C22.2601 14.6771 21.6382 14.0552 20.8737 14.0552H12.8375C12.0731 14.0552 11.4511 14.6771 11.4511 15.4416V23.4778C11.4511 24.2422 12.0731 24.8642 12.8375 24.8642ZM12.623 15.4416C12.623 15.3232 12.7191 15.2271 12.8375 15.2271H20.8737C20.9918 15.2271 21.0883 15.3232 21.0883 15.4416V23.4778C21.0883 23.5959 20.9918 23.6923 20.8737 23.6923H12.8375C12.7191 23.6923 12.623 23.5959 12.623 23.4778V15.4416Z" fill="white"/>
<path d="M24.39 15.2271H35.2649C35.5884 15.2271 35.8508 14.9649 35.8508 14.6411C35.8508 14.3173 35.5884 14.0552 35.2649 14.0552H24.39C24.0665 14.0552 23.804 14.3173 23.804 14.6411C23.804 14.9649 24.0665 15.2271 24.39 15.2271Z" fill="white"/>
<path d="M24.39 20.0458H35.2649C35.5884 20.0458 35.8508 19.7833 35.8508 19.4598C35.8508 19.136 35.5884 18.8739 35.2649 18.8739H24.39C24.0665 18.8739 23.804 19.136 23.804 19.4598C23.804 19.7833 24.0665 20.0458 24.39 20.0458Z" fill="white"/>
<path d="M24.39 24.8641H35.2649C35.5884 24.8641 35.8508 24.6017 35.8508 24.2782C35.8508 23.9544 35.5884 23.6923 35.2649 23.6923H24.39C24.0665 23.6923 23.804 23.9544 23.804 24.2782C23.804 24.6017 24.0665 24.8641 24.39 24.8641Z" fill="white"/>
<path d="M12.037 29.6826H35.2649C35.5884 29.6826 35.8508 29.4205 35.8508 29.0967C35.8508 28.7732 35.5884 28.5107 35.2649 28.5107H12.037C11.7136 28.5107 11.4511 28.7732 11.4511 29.0967C11.4511 29.4205 11.7136 29.6826 12.037 29.6826Z" fill="white"/>
<path d="M12.037 34.5013H35.2649C35.5884 34.5013 35.8508 34.2392 35.8508 33.9154C35.8508 33.5916 35.5884 33.3295 35.2649 33.3295H12.037C11.7136 33.3295 11.4511 33.5916 11.4511 33.9154C11.4511 34.2392 11.7136 34.5013 12.037 34.5013Z" fill="white"/>
<path d="M11.4661 11.0568V4.86536C11.4661 4.7381 11.5265 4.64105 11.6473 4.57452C11.7682 4.50769 11.9147 4.47412 12.0862 4.47412C12.3154 4.47412 12.4899 4.51562 12.6111 4.59833C12.7316 4.68103 12.8653 4.85925 13.0118 5.13239L14.8529 8.69104V4.8559C14.8529 4.72864 14.9133 4.63342 15.0342 4.56964C15.1547 4.50616 15.3012 4.47412 15.473 4.47412C15.6448 4.47412 15.791 4.50616 15.9119 4.56964C16.0327 4.63342 16.0931 4.72864 16.0931 4.8559V11.0568C16.0931 11.1779 16.0309 11.2731 15.907 11.343C15.7831 11.4132 15.6384 11.448 15.473 11.448C15.1358 11.448 14.8972 11.3177 14.7574 11.0568L12.7063 7.22162V11.0568C12.7063 11.1779 12.6443 11.2731 12.5204 11.343C12.3965 11.4132 12.2516 11.448 12.0862 11.448C11.9147 11.448 11.7682 11.4132 11.6476 11.343C11.5265 11.2731 11.4661 11.1779 11.4661 11.0568Z" fill="white"/>
<path d="M17.2379 11.0568V4.86536C17.2379 4.74451 17.2919 4.64929 17.4002 4.5791C17.5082 4.50922 17.6352 4.47412 17.7817 4.47412H21.178C21.3049 4.47412 21.4023 4.52844 21.4688 4.63647C21.5356 4.74451 21.5692 4.86871 21.5692 5.00848C21.5692 5.16107 21.5341 5.29169 21.4642 5.39972C21.394 5.50806 21.2985 5.56177 21.178 5.56177H18.4781V7.46973H19.9283C20.0488 7.46973 20.1443 7.51917 20.2145 7.61774C20.2844 7.71631 20.3195 7.83228 20.3195 7.96594C20.3195 8.08679 20.286 8.19635 20.2191 8.29523C20.1523 8.3938 20.0555 8.44293 19.9283 8.44293H18.4781V10.3607H21.178C21.2985 10.3607 21.394 10.4147 21.4642 10.5227C21.5341 10.631 21.5692 10.7614 21.5692 10.9139C21.5692 11.0537 21.5356 11.1779 21.4688 11.2859C21.4023 11.3943 21.3049 11.448 21.178 11.448H17.7817C17.6352 11.448 17.5082 11.4132 17.4002 11.3433C17.2919 11.2731 17.2379 11.1779 17.2379 11.0568Z" fill="white"/>
<path d="M22.1893 4.97034C22.1893 4.83667 22.2751 4.7207 22.4469 4.62213C22.6184 4.52356 22.7966 4.47412 22.981 4.47412C23.2101 4.47412 23.3469 4.55682 23.3911 4.72223L24.8987 9.89313L25.7095 6.57312C25.7666 6.34393 25.9702 6.22949 26.3199 6.22949C26.6635 6.22949 26.8637 6.34393 26.9211 6.57312L27.7319 9.89313L29.2392 4.72223C29.2838 4.55682 29.4205 4.47412 29.6497 4.47412C29.834 4.47412 30.0119 4.52356 30.1837 4.62213C30.3555 4.7207 30.4413 4.83667 30.4413 4.97034C30.4413 5.00848 30.4349 5.04663 30.4224 5.08478L28.5333 11.0854C28.4378 11.3656 28.1674 11.5054 27.7225 11.5054C27.5317 11.5054 27.3599 11.4688 27.2073 11.3955C27.0547 11.3226 26.9623 11.2191 26.9305 11.0854L26.3202 8.50977L25.7001 11.0854C25.668 11.2191 25.5759 11.3226 25.4233 11.3955C25.2707 11.4688 25.0989 11.5054 24.9081 11.5054C24.711 11.5054 24.5361 11.4688 24.3835 11.3955C24.2307 11.3226 24.1354 11.2191 24.0973 11.0854L22.2083 5.08478C22.1954 5.04663 22.1893 5.00848 22.1893 4.97034Z" fill="white"/>
<path d="M30.7562 10.351C30.7562 10.2048 30.8118 10.0568 30.9232 9.90723C31.0342 9.758 31.16 9.68323 31.3 9.68323C31.3824 9.68323 31.4764 9.7229 31.5814 9.80225C31.6864 9.88129 31.788 9.96918 31.8866 10.0647C31.9852 10.1605 32.1268 10.2481 32.3114 10.3275C32.4957 10.4068 32.6993 10.4462 32.9218 10.4462C33.2272 10.4462 33.4814 10.3763 33.685 10.2362C33.8886 10.0964 33.9902 9.88983 33.9902 9.61639C33.9902 9.42535 33.9346 9.25537 33.8232 9.10583C33.7122 8.9566 33.5657 8.8324 33.3844 8.73383C33.2034 8.63525 33.0045 8.53973 32.7884 8.44757C32.572 8.35541 32.3541 8.25195 32.1347 8.13751C31.9153 8.02307 31.7151 7.89429 31.5338 7.75116C31.3525 7.60803 31.2061 7.4173 31.095 7.17865C30.9836 6.94031 30.928 6.6684 30.928 6.36322C30.928 6.02112 30.9964 5.71899 31.1331 5.45776C31.2698 5.19623 31.4526 4.99298 31.6815 4.84772C31.9104 4.70245 32.1552 4.59595 32.4161 4.5282C32.6767 4.46045 32.9535 4.42627 33.2462 4.42627C33.4113 4.42627 33.5861 4.43787 33.7708 4.46075C33.9551 4.48364 34.1507 4.52118 34.3576 4.57336C34.5642 4.62555 34.7327 4.70734 34.863 4.81812C34.9933 4.9292 35.0586 5.05981 35.0586 5.21027C35.0586 5.35187 35.014 5.49835 34.9252 5.64972C34.8361 5.80109 34.7153 5.87646 34.5627 5.87646C34.5053 5.87646 34.3494 5.81604 34.0952 5.69519C33.8406 5.57434 33.5577 5.51392 33.2462 5.51392C32.9025 5.51392 32.637 5.57922 32.4496 5.70953C32.262 5.84015 32.168 6.01959 32.168 6.24847C32.168 6.43311 32.2443 6.59363 32.3972 6.73035C32.5497 6.86707 32.739 6.97845 32.9648 7.06421C33.1903 7.14996 33.4354 7.2583 33.6993 7.38861C33.963 7.51892 34.2081 7.66052 34.4339 7.81311C34.6594 7.9657 34.8489 8.18665 35.0015 8.47595C35.1541 8.76556 35.2304 9.10431 35.2304 9.49219C35.2304 10.1443 35.022 10.6479 34.6057 11.0022C34.1888 11.3565 33.6404 11.5338 32.9599 11.5338C32.3557 11.5338 31.8375 11.4096 31.405 11.1615C30.9723 10.914 30.7562 10.6436 30.7562 10.351Z" fill="white"/>
</g>
<defs>
<clipPath id="clip0">
<rect width="40" height="40" fill="white"/>
</clipPath>
</defs>
</svg>
