<svg width="29" height="26" viewBox="0 0 29 26" fill="none" xmlns="http://www.w3.org/2000/svg">
<g clip-path="url(#clip0)">
<path d="M17.1369 17.7154C18.7737 17.7154 20.1005 16.5638 20.1005 15.1433C20.1005 13.7227 18.7737 12.5712 17.1369 12.5712C15.5002 12.5712 14.1733 13.7227 14.1733 15.1433C14.1733 16.5638 15.5002 17.7154 17.1369 17.7154Z" fill="#179EFF"/>
<path d="M20.0017 19.7827C19.7418 20.1958 19.2426 20.4526 18.7002 20.4523C18.6849 20.4523 18.6701 20.4485 18.6548 20.448C18.7539 21.6123 19.5504 22.6458 20.7525 23.1697V22.6926C20.7546 22.3897 20.9983 22.1285 21.3393 22.0637L22.2644 21.9038C21.3349 21.2497 20.6337 20.3839 20.2393 19.4033L20.0017 19.7827Z" fill="#179EFF"/>
<path d="M14.2722 19.7821L14.0336 19.4027C13.6391 20.3834 12.9379 21.2493 12.0085 21.9037L12.9252 22.0623C13.2687 22.1256 13.5152 22.3877 13.5179 22.6924V23.1691C14.7192 22.6451 15.5156 21.6124 15.6156 20.4487C15.0589 20.4638 14.5396 20.2062 14.2722 19.7821Z" fill="#179EFF"/>
<path d="M23.558 0.996826H7.6535L10.2086 2.81102C10.7709 3.21027 11.102 3.80414 11.114 4.43456C11.126 5.06498 10.8176 5.66801 10.2708 6.08316L4.29478 10.6225V23.7171C4.29478 24.4273 4.9582 25.0031 5.77656 25.0031H23.558C24.3764 25.0031 25.0398 24.4273 25.0398 23.7171V2.28288C25.0398 1.57261 24.3764 0.996826 23.558 0.996826ZM15.6552 4.4263H22.5702C22.8429 4.4263 23.0641 4.61822 23.0641 4.85498C23.0641 5.09173 22.8429 5.28366 22.5702 5.28366H15.6552C15.3824 5.28366 15.1612 5.09173 15.1612 4.85498C15.1612 4.61822 15.3824 4.4263 15.6552 4.4263ZM14.6673 6.9984H22.5702C22.8429 6.9984 23.0641 7.19033 23.0641 7.42708C23.0641 7.66384 22.8429 7.85577 22.5702 7.85577H14.6673C14.3945 7.85577 14.1734 7.66384 14.1734 7.42708C14.1734 7.19033 14.3945 6.9984 14.6673 6.9984ZM12.6916 4.4263H13.6794C13.9522 4.4263 14.1734 4.61822 14.1734 4.85498C14.1734 5.09173 13.9522 5.28366 13.6794 5.28366H12.6916C12.4188 5.28366 12.1976 5.09173 12.1976 4.85498C12.1976 4.61822 12.4188 4.4263 12.6916 4.4263ZM6.27049 21.5736C6.27049 21.8104 6.04935 22.0023 5.77656 22.0023C5.50378 22.0023 5.28264 21.8104 5.28264 21.5736V13.8573C5.28264 13.6206 5.50378 13.4287 5.77656 13.4287C6.04935 13.4287 6.27049 13.6206 6.27049 13.8573V21.5736ZM6.27049 12.1426C6.27049 12.3794 6.04935 12.5713 5.77656 12.5713C5.50378 12.5713 5.28264 12.3794 5.28264 12.1426V11.2852C5.28264 11.0485 5.50378 10.8566 5.77656 10.8566C6.04935 10.8566 6.27049 11.0485 6.27049 11.2852V12.1426ZM10.2219 7.42708C10.2219 7.19033 10.4431 6.9984 10.7159 6.9984H12.6916C12.9644 6.9984 13.1855 7.19033 13.1855 7.42708C13.1855 7.66384 12.9644 7.85577 12.6916 7.85577H10.7159C10.4431 7.85577 10.2219 7.66384 10.2219 7.42708ZM22.6813 17.4326C22.8028 18.1246 22.2598 18.7726 21.4638 18.8854L21.0983 18.9398C21.4546 19.9753 22.2253 20.8663 23.2715 21.4523C23.5401 21.585 23.6856 21.8483 23.6366 22.113C23.5877 22.3778 23.3546 22.5884 23.0517 22.6415L21.7418 22.8687V23.5027C21.7415 23.7178 21.6172 23.9185 21.4108 24.0374C21.2043 24.1564 20.943 24.1779 20.7145 24.0947C18.8621 23.4467 17.6485 21.8876 17.6472 20.1543L17.3508 20.0321C17.2167 19.9768 17.0611 19.9768 16.927 20.0321L16.6307 20.1543C16.6284 21.8909 15.4102 23.4519 13.553 24.0982C13.4654 24.1301 13.3714 24.1464 13.2764 24.1462C12.8672 24.1462 12.5355 23.8583 12.5355 23.5031V22.8683L11.2236 22.6411C10.9206 22.5873 10.6879 22.3758 10.64 22.1106C10.5921 21.8453 10.7392 21.5822 11.0088 21.4506C12.0532 20.8645 12.8221 19.9739 13.1771 18.9394L12.8121 18.8854C12.016 18.7726 11.473 18.1246 11.5946 17.4326L11.6933 16.8435C11.7152 16.7097 11.6634 16.5746 11.5536 16.4787L11.0626 16.0501C10.4861 15.5481 10.4861 14.7361 11.0626 14.2341L11.5541 13.8055C11.6637 13.7095 11.7152 13.5745 11.6933 13.4407L11.5946 12.8521C11.473 12.16 12.016 11.5121 12.8121 11.3993L13.5653 11.2878C13.7138 11.2651 13.8425 11.1854 13.9155 11.0709L14.2741 10.502C14.6508 9.90388 15.4997 9.66467 16.2093 9.95674L16.927 10.2525C17.0611 10.3078 17.2167 10.3078 17.3508 10.2525L18.0685 9.95674C18.7784 9.66617 19.6262 9.90643 20.0017 10.5046L20.3593 11.073C20.4327 11.1875 20.5615 11.2671 20.71 11.29L21.4633 11.4014C22.2593 11.5142 22.8023 12.1622 22.6808 12.8542L22.582 13.4432C22.5602 13.5771 22.6119 13.7121 22.7218 13.808L23.2128 14.2367C23.7893 14.7386 23.7893 15.5507 23.2128 16.0526L22.7188 16.4813C22.6092 16.5773 22.5577 16.7123 22.5795 16.8461L22.6813 17.4326Z" fill="#179EFF"/>
<path d="M22.0219 14.4146C21.6932 14.1271 21.5389 13.7224 21.605 13.3214L21.7038 12.732C21.7425 12.5016 21.5623 12.2866 21.2978 12.2476L20.5446 12.1361C20.0976 12.0713 19.7099 11.8314 19.4935 11.4858L19.1354 10.917C19.0098 10.7173 18.7265 10.6376 18.4898 10.7352L17.7722 11.0306C17.3705 11.1973 16.9034 11.1973 16.5018 11.0306L15.7841 10.7352C15.5477 10.6378 15.2647 10.7173 15.139 10.9165L14.7804 11.4858C14.5635 11.8309 14.1757 12.0701 13.7289 12.1344L12.9756 12.2459C12.7112 12.2849 12.5309 12.4999 12.5696 12.7303L12.6684 13.3193C12.7347 13.7202 12.5805 14.1248 12.252 14.4124L11.7581 14.8411C11.5659 15.0084 11.5659 15.2791 11.7581 15.4464L12.252 15.8751C12.5807 16.1626 12.735 16.5673 12.6689 16.9682L12.5701 17.5577C12.5314 17.788 12.7117 18.0031 12.9761 18.0421L13.7294 18.1536C13.7964 18.1658 13.8625 18.1821 13.9269 18.2024H13.9462C13.9526 18.2024 13.958 18.2089 13.965 18.2106C14.3132 18.312 14.6048 18.5233 14.7819 18.8026L15.14 19.3714C15.2656 19.5711 15.5489 19.6508 15.7856 19.5532L16.5033 19.2578C16.905 19.0915 17.3719 19.0915 17.7736 19.2578L18.4913 19.5532C18.7277 19.6506 19.0107 19.5711 19.1364 19.3719L19.495 18.8026C19.6635 18.5359 19.9363 18.3302 20.264 18.2226C20.2759 18.2179 20.2892 18.217 20.3016 18.2131C20.3809 18.1867 20.4627 18.1664 20.5461 18.1523L21.2993 18.0408C21.5637 18.0018 21.744 17.7868 21.7053 17.5564L21.6065 16.9674C21.5403 16.5665 21.6944 16.1619 22.0229 15.8742L22.5168 15.4456C22.709 15.2783 22.709 15.0076 22.5168 14.8403L22.0219 14.4146ZM17.137 18.5728C14.9547 18.5728 13.1855 17.0374 13.1855 15.1433C13.1855 13.2493 14.9547 11.7139 17.137 11.7139C19.3193 11.7139 21.0884 13.2493 21.0884 15.1433C21.0859 17.0365 19.3183 18.5707 17.137 18.5728Z" fill="#179EFF"/>
<path d="M10.1271 4.44895C10.1204 4.07051 9.92157 3.71394 9.58378 3.47456L6.58168 1.34314L4.60102 9.25021L9.62132 5.4375C9.94953 5.18878 10.1346 4.82706 10.1271 4.44895Z" fill="#179EFF"/>
</g>
<defs>
<clipPath id="clip0">
<rect width="27.66" height="24.0063" fill="white" transform="translate(0.83728 0.996826)"/>
</clipPath>
</defs>
</svg>
