<svg width="30" height="26" viewBox="0 0 30 26" fill="none" xmlns="http://www.w3.org/2000/svg">
<g clip-path="url(#clip0)">
<g clip-path="url(#clip1)">
<path d="M16.1342 7.11914C13.4105 7.11914 11.1948 9.03034 11.1948 11.3795C11.1948 13.7288 13.4105 15.64 16.1342 15.64C18.8576 15.64 21.0734 13.7288 21.0734 11.3795C21.0734 9.03034 18.8576 7.11914 16.1342 7.11914ZM19.0667 10.5772L15.5282 13.6293C15.3796 13.7574 15.1848 13.8216 14.9902 13.8216C14.7956 13.8216 14.601 13.7576 14.4524 13.6293L13.1002 12.4629C12.8031 12.2069 12.8031 11.7915 13.1002 11.5352C13.3971 11.279 13.8787 11.279 14.1757 11.5352L14.9902 12.2377L17.9911 9.64944C18.288 9.39321 18.7696 9.39321 19.0667 9.64944C19.3638 9.90551 19.3638 10.3209 19.0667 10.5772Z" fill="#179EFF"/>
<path d="M27.1462 6.26596L27.1454 6.24856C27.1341 6.03378 27.1266 5.80654 27.1221 5.55372C27.1009 4.32081 25.9646 3.30098 24.5351 3.23206C21.5545 3.08859 19.2488 2.25028 17.2787 0.593949L17.2619 0.580131C16.6193 0.0719225 15.6499 0.0719225 15.0072 0.580131L14.9903 0.593949C13.0202 2.25028 10.7145 3.08859 7.73393 3.23223C6.30457 3.30098 5.16811 4.32081 5.14695 5.55389C5.1426 5.80501 5.13489 6.03224 5.12361 6.24856L5.12243 6.28899C5.06448 8.91055 4.99248 12.1732 6.25789 15.1346C6.95369 16.7631 8.00747 18.1787 9.38976 19.3424C10.9641 20.6676 13.0262 21.7197 15.5186 22.4693C15.5997 22.4937 15.684 22.5134 15.7698 22.5283C15.8908 22.5491 16.0127 22.5595 16.1345 22.5595C16.2563 22.5595 16.3784 22.5491 16.4992 22.5283C16.5851 22.5134 16.6699 22.4935 16.7514 22.4689C19.2409 21.718 21.3008 20.6654 22.8737 19.3403C24.2554 18.1764 25.3092 16.7604 26.0056 15.1315C27.2757 12.1613 27.2039 8.89247 27.1462 6.26596ZM16.1341 16.9522C12.5717 16.9522 9.67358 14.4524 9.67358 11.3796C9.67358 8.30681 12.5717 5.80705 16.1341 5.80705C19.6964 5.80705 22.5946 8.30681 22.5946 11.3796C22.5946 14.4524 19.6964 16.9522 16.1341 16.9522Z" fill="#179EFF"/>
</g>
</g>
<defs>
<clipPath id="clip0">
<rect width="28.0486" height="24.0101" fill="white" transform="translate(0.975708 0.994873)"/>
</clipPath>
<clipPath id="clip1">
<rect width="25.9237" height="22.3606" fill="white" transform="translate(3.17245 0.199097)"/>
</clipPath>
</defs>
</svg>
