<svg width="33" height="33" viewBox="0 0 33 33" fill="none" xmlns="http://www.w3.org/2000/svg">
<g clip-path="url(#clip0)">
<path d="M16.1511 32.3584C24.9877 32.3584 32.1511 25.195 32.1511 16.3584C32.1511 7.52184 24.9877 0.358398 16.1511 0.358398C7.31457 0.358398 0.151123 7.52184 0.151123 16.3584C0.151123 25.195 7.31457 32.3584 16.1511 32.3584Z" fill="#6C27B3"/>
<path d="M23.5705 8.66607C21.6588 8.90807 19.6656 8.89963 17.6596 8.70863C14.8582 8.49313 10.7639 7.20019 9.2555 9.78607C6.83224 13.9258 8.02743 19.2258 8.59212 23.9159L17.0132 32.3352C25.1624 31.9025 31.6936 25.3723 32.1276 17.2233L23.5705 8.66607Z" fill="#501A96"/>
<path d="M19.8528 7.2002H12.4494C9.44062 7.2002 6.99287 9.64795 6.99287 12.6567V20.0601C6.99287 23.0688 9.44062 25.5167 12.4494 25.5167H19.8529C22.8615 25.5167 25.3094 23.0689 25.3094 20.0601V12.6567C25.3094 9.64795 22.8615 7.2002 19.8528 7.2002ZM23.4667 20.0602C23.4667 22.0561 21.8487 23.6741 19.8529 23.6741H12.4494C10.4536 23.6741 8.83556 22.0561 8.83556 20.0602V12.6568C8.83556 10.6609 10.4536 9.04282 12.4494 9.04282H19.8529C21.8487 9.04282 23.4667 10.6609 23.4667 12.6568V20.0602Z" fill="white"/>
<path d="M16.1511 11.6211C13.539 11.6211 11.4137 13.7463 11.4137 16.3585C11.4137 18.9704 13.539 21.0957 16.1511 21.0957C18.7632 21.0957 20.8883 18.9706 20.8883 16.3585C20.8883 13.7463 18.7632 11.6211 16.1511 11.6211ZM16.1511 19.253C14.5524 19.253 13.2564 17.9572 13.2564 16.3585C13.2564 14.7597 14.5524 13.4637 16.1511 13.4637C17.7498 13.4637 19.0457 14.7597 19.0457 16.3585C19.0457 17.9572 17.7498 19.253 16.1511 19.253Z" fill="white"/>
<path d="M22.0326 11.6567C22.0326 12.2835 21.5243 12.7919 20.8974 12.7919C20.2705 12.7919 19.7622 12.2835 19.7622 11.6567C19.7622 11.0297 20.2705 10.5215 20.8974 10.5215C21.5244 10.5215 22.0326 11.0296 22.0326 11.6567Z" fill="#D1D1D1"/>
<path d="M19.8529 7.2002H16.1152V9.04282H19.8529C21.8487 9.04282 23.4667 10.6609 23.4667 12.6568V20.0602C23.4667 22.0561 21.8487 23.6741 19.8529 23.6741H16.1152V25.5167H19.8529C22.8615 25.5167 25.3094 23.0689 25.3094 20.0601V12.6567C25.3094 9.64795 22.8616 7.2002 19.8529 7.2002Z" fill="#D1D1D1"/>
<path d="M16.1511 11.6211C16.1391 11.6211 16.1273 11.622 16.1152 11.622V13.4646C16.1272 13.4645 16.1391 13.4637 16.1511 13.4637C17.7498 13.4637 19.0457 14.7597 19.0457 16.3585C19.0457 17.9572 17.7499 19.253 16.1511 19.253C16.1391 19.253 16.1272 19.2523 16.1152 19.2522V21.0948C16.1273 21.0949 16.1391 21.0957 16.1511 21.0957C18.7633 21.0957 20.8883 18.9705 20.8883 16.3585C20.8883 13.7463 18.7633 11.6211 16.1511 11.6211Z" fill="#D1D1D1"/>
</g>
<defs>
<clipPath id="clip0">
<rect width="32" height="32" fill="white" transform="translate(0.151123 0.358398)"/>
</clipPath>
</defs>
</svg>
