<svg width="33" height="33" viewBox="0 0 33 33" fill="none" xmlns="http://www.w3.org/2000/svg">
<g clip-path="url(#clip0)">
<path d="M16.1662 13.6188C17.694 13.6132 18.9108 12.386 18.9052 10.8549C18.8997 9.32312 17.6802 8.10434 16.1518 8.10303C14.6105 8.10139 13.3796 9.34276 13.3914 10.8883C13.4029 12.4138 14.6335 13.6244 16.1662 13.6188Z" fill="url(#paint0_linear)"/>
<path d="M16.1511 0.358398C7.31454 0.358398 0.151123 7.52214 0.151123 16.3584C0.151123 25.1947 7.31454 32.3584 16.1511 32.3584C24.9877 32.3584 32.1511 25.1947 32.1511 16.3584C32.1511 7.52214 24.9877 0.358398 16.1511 0.358398ZM16.174 5.22404C19.2906 5.23255 21.792 7.78174 21.7759 10.9326C21.7602 14.0109 19.2179 16.5057 16.1066 16.4952C13.0271 16.4848 10.5014 13.9316 10.5198 10.8472C10.5371 7.72904 13.0641 5.21552 16.174 5.22404ZM22.4863 18.7095C21.7972 19.417 20.9677 19.929 20.0464 20.2861C19.1757 20.6236 18.2214 20.7935 17.2766 20.9068C17.4197 21.062 17.4868 21.1383 17.5758 21.2273C18.8578 22.5161 20.146 23.7984 21.4237 25.0909C21.8591 25.5315 21.9498 26.0776 21.7101 26.5892C21.4486 27.149 20.8616 27.517 20.2858 27.4774C19.9211 27.4522 19.6366 27.2711 19.3842 27.0168C18.4165 26.0432 17.4305 25.087 16.4831 24.095C16.2064 23.8063 16.0742 23.8613 15.8303 24.1121C14.857 25.1144 13.8677 26.1008 12.8729 27.0819C12.426 27.5226 11.8944 27.6024 11.3758 27.3504C10.8249 27.0839 10.4746 26.5211 10.5014 25.9551C10.5204 25.5734 10.7083 25.2808 10.9709 25.0195C12.2401 23.7529 13.5054 22.4824 14.7709 21.2129C14.8551 21.1288 14.933 21.0394 15.0551 20.9085C13.3289 20.7281 11.7723 20.3032 10.4396 19.2612C10.2739 19.1315 10.1034 19.0065 9.95278 18.8611C9.36909 18.301 9.31049 17.659 9.77175 16.9984C10.1669 16.4327 10.8295 16.2815 11.5186 16.6065C11.6521 16.6691 11.7792 16.7483 11.9009 16.8321C14.3843 18.5387 17.7961 18.5855 20.2894 16.9084C20.5362 16.7198 20.8004 16.5646 21.1065 16.4864C21.701 16.3332 22.2562 16.5522 22.575 17.0727C22.94 17.6675 22.9358 18.2476 22.4863 18.7095Z" fill="url(#paint1_linear)"/>
</g>
<defs>
<linearGradient id="paint0_linear" x1="16.1483" y1="8.10303" x2="16.1483" y2="13.6188" gradientUnits="userSpaceOnUse">
<stop stop-color="#FFBC64"/>
<stop offset="1" stop-color="#CB7300"/>
</linearGradient>
<linearGradient id="paint1_linear" x1="16.1511" y1="0.358398" x2="16.1511" y2="32.3584" gradientUnits="userSpaceOnUse">
<stop stop-color="#FFBC64"/>
<stop offset="1" stop-color="#CB7300"/>
</linearGradient>
<clipPath id="clip0">
<rect width="32" height="32" fill="white" transform="translate(0.151123 0.358398)"/>
</clipPath>
</defs>
</svg>
