<svg width="102" height="107" viewBox="0 0 102 107" fill="none" xmlns="http://www.w3.org/2000/svg">
<path d="M101.723 53.51C101.723 24.0332 79.0543 0.0529785 51.1894 0.0529785C23.3245 0.0529785 0.655518 24.0332 0.655518 53.51C0.655518 63.1166 3.07276 72.4701 7.6629 80.6818L0.841304 106.769L25.5034 99.5543C33.2661 104.41 42.1081 106.967 51.1894 106.967C79.0543 106.967 101.723 82.9868 101.723 53.51ZM43.4349 41.0686H35.6803C35.6803 32.0217 42.6372 24.6624 51.1894 24.6624C59.7416 24.6624 66.6985 32.0217 66.6985 41.0686C66.6985 45.6604 64.8609 50.0739 61.655 53.1757L55.0667 59.5545V65.9514H47.3121V55.9421L56.4197 47.1237C58.0474 45.5483 58.944 43.3982 58.944 41.0686C58.944 36.5451 55.4655 32.8655 51.1894 32.8655C46.9133 32.8655 43.4349 36.5451 43.4349 41.0686ZM47.3121 74.1545H55.0667V82.3577H47.3121V74.1545Z" fill="#179EFF"/>
</svg>
