<svg width="33" height="33" viewBox="0 0 33 33" fill="none" xmlns="http://www.w3.org/2000/svg">
<g clip-path="url(#clip0)">
<path d="M16.7551 32.8882C25.5917 32.8882 32.7551 25.7247 32.7551 16.8882C32.7551 8.05163 25.5917 0.888184 16.7551 0.888184C7.91857 0.888184 0.755127 8.05163 0.755127 16.8882C0.755127 25.7247 7.91857 32.8882 16.7551 32.8882Z" fill="#7AA5DA"/>
<path d="M32.7506 16.518L25.648 9.42725L14.0788 23.5291L22.409 31.8594C28.4552 29.5749 32.7553 23.7341 32.7553 16.8882C32.7553 16.7644 32.7534 16.641 32.7506 16.518Z" fill="#5786B5"/>
<path d="M24.7372 9.23289C25.375 8.98402 26.0344 9.54214 25.8944 10.2123L23.0337 23.8861C22.9001 24.5271 22.147 24.8159 21.619 24.428L17.3007 21.2582L15.0995 23.5058C14.7127 23.9001 14.0457 23.7396 13.8798 23.2138L12.2917 18.1724L8.03466 16.915C7.47548 16.7501 7.44316 15.9723 7.9851 15.76L24.7372 9.23289ZM22.6372 12.267C22.8236 12.1021 22.607 11.8112 22.3959 11.9426L13.2074 17.6412C13.0458 17.7414 12.9715 17.9386 13.0285 18.1206L14.2816 23.6231C14.3064 23.7072 14.427 23.6953 14.4379 23.6081L14.718 19.4147C14.7287 19.3113 14.7783 19.2165 14.8559 19.1475L22.6372 12.267Z" fill="white"/>
<path d="M22.396 11.9429C22.6072 11.8115 22.8237 12.1024 22.6374 12.2672L14.8561 19.1478C14.7786 19.2167 14.729 19.3115 14.7182 19.415L14.4381 23.6084C14.4273 23.6956 14.3066 23.7075 14.2818 23.6234L13.0288 18.1209C12.9716 17.9389 13.046 17.7417 13.2076 17.6415L22.396 11.9429Z" fill="#9EC2E5"/>
<path d="M14.327 23.6803C14.1244 23.6082 13.9531 23.4465 13.8799 23.2138L12.2917 18.1724L8.03474 16.915C7.47555 16.7501 7.44324 15.9723 7.98518 15.76L24.7372 9.23295C25.1487 9.07239 25.5701 9.24801 25.778 9.57345C25.7392 9.5142 25.6929 9.45926 25.6412 9.41076L14.2763 18.6886V19.0948L14.2138 19.0495L14.2763 21.6074V23.6588C14.2925 23.6664 14.3097 23.6728 14.3269 23.6782V23.6803H14.327Z" fill="white"/>
<path d="M25.9132 9.98326C25.9165 10.0565 25.9111 10.1341 25.8949 10.2128L23.0343 23.8866C22.9007 24.5276 22.1475 24.8164 21.6196 24.4285L17.3012 21.2587L14.2769 19.0952V18.689L25.6417 9.41113C25.6934 9.45963 25.7398 9.51457 25.7785 9.57382C25.7861 9.58676 25.7936 9.59857 25.8012 9.61045C25.8076 9.62338 25.8152 9.63632 25.8217 9.64813C25.8281 9.66107 25.8346 9.67401 25.84 9.68694C25.8464 9.70094 25.8518 9.71388 25.8572 9.72788C25.8615 9.73976 25.8669 9.75263 25.8712 9.7667C25.8852 9.8087 25.896 9.85182 25.9035 9.89707C25.9078 9.92507 25.9111 9.95313 25.9132 9.98326Z" fill="#D1D1D1"/>
<path d="M17.3012 21.259L15.1001 23.5066C15.0817 23.5249 15.0624 23.5432 15.0429 23.5594C15.0236 23.5756 15.0041 23.5896 14.9837 23.6036C14.9826 23.6046 14.9826 23.6046 14.9826 23.6046C14.9417 23.6316 14.8997 23.6542 14.8555 23.6725C14.8329 23.6811 14.8113 23.6898 14.7887 23.6951C14.6949 23.7231 14.5991 23.7307 14.5042 23.721C14.4795 23.7189 14.4547 23.7146 14.431 23.7103C14.4277 23.7103 14.4246 23.7092 14.4213 23.7081C14.3976 23.7017 14.3739 23.6952 14.3502 23.6876C14.3426 23.6855 14.3351 23.6833 14.3276 23.679L14.2769 21.6082V19.0956L17.3012 21.259Z" fill="#D1D1D1"/>
<path d="M15.0427 23.5588C15.0234 23.575 15.0039 23.5901 14.9835 23.6041V23.603C15.004 23.589 15.0234 23.575 15.0427 23.5588Z" fill="#DADDE0"/>
<path d="M14.9834 23.6029V23.6037C14.9834 23.6037 14.9834 23.6029 14.9826 23.6037C14.9826 23.6037 14.9826 23.6037 14.9834 23.6029Z" fill="#DADDE0"/>
<path d="M14.8551 23.6719C14.8993 23.6536 14.9413 23.6309 14.9822 23.604C14.9413 23.6309 14.8981 23.6535 14.8551 23.6719Z" fill="#DADDE0"/>
<path d="M14.504 23.7206C14.5988 23.7303 14.6947 23.7227 14.7884 23.6947C14.7205 23.7163 14.6505 23.726 14.5805 23.726C14.5589 23.726 14.5373 23.7249 14.5169 23.7227C14.5126 23.7228 14.5083 23.7228 14.504 23.7206Z" fill="#DADDE0"/>
<path d="M14.5805 23.7257C14.5589 23.7257 14.5374 23.7246 14.5169 23.7224C14.5374 23.7246 14.5589 23.7257 14.5805 23.7257Z" fill="white"/>
<path d="M14.5042 23.7205C14.5085 23.7226 14.5128 23.7226 14.5171 23.7226C14.4945 23.7216 14.474 23.7183 14.4525 23.714C14.4697 23.7173 14.4869 23.7194 14.5042 23.7205Z" fill="white"/>
<path d="M14.5039 23.7203C14.4866 23.7193 14.4694 23.7171 14.4522 23.7139C14.4446 23.7128 14.4371 23.7118 14.4306 23.7096C14.4543 23.7139 14.4791 23.7182 14.5039 23.7203Z" fill="#DADDE0"/>
<path d="M14.3498 23.6868C14.3735 23.6943 14.3973 23.7008 14.421 23.7073C14.4113 23.7051 14.4016 23.703 14.3919 23.7008C14.3876 23.6998 14.3833 23.6987 14.38 23.6965C14.3703 23.6943 14.3595 23.6911 14.3498 23.6868Z" fill="#DADDE0"/>
<path d="M14.3917 23.7013C14.4014 23.7034 14.4111 23.7056 14.4208 23.7077C14.4111 23.7067 14.4014 23.7045 14.3917 23.7013Z" fill="white"/>
<path d="M14.3496 23.6874C14.3593 23.6917 14.3701 23.6949 14.3798 23.6971C14.3636 23.6938 14.3475 23.6884 14.3313 23.682C14.3378 23.6841 14.3431 23.6863 14.3496 23.6874Z" fill="white"/>
<path d="M14.3501 23.687C14.3437 23.686 14.3382 23.6838 14.3318 23.6817C14.3307 23.6827 14.3285 23.6817 14.3275 23.6806V23.6785C14.335 23.6827 14.3425 23.6848 14.3501 23.687Z" fill="#DADDE0"/>
<path d="M14.2769 21.608L14.3275 23.6788C14.3102 23.6735 14.293 23.667 14.2769 23.6595V21.608Z" fill="#D1D1D1"/>
<path d="M14.2769 19.0951V21.6077L14.2144 19.0498L14.2769 19.0951Z" fill="#DADDE0"/>
<path d="M22.6373 12.2675L14.8561 19.148C14.7785 19.217 14.729 19.3118 14.7181 19.4152L14.4385 23.609C14.4278 23.6962 14.3071 23.7081 14.2812 23.624L13.0287 18.1212C12.9716 17.9391 13.046 17.742 13.2076 17.6418L22.396 11.9432C22.6072 11.8117 22.8238 12.1026 22.6373 12.2675Z" fill="#ADBCC9"/>
</g>
<defs>
<clipPath id="clip0">
<rect width="32" height="32" fill="white" transform="translate(0.755127 0.888184)"/>
</clipPath>
</defs>
</svg>
