<svg width="40" height="41" viewBox="0 0 40 41" fill="none" xmlns="http://www.w3.org/2000/svg">
<g clip-path="url(#clip0)">
<path d="M10.889 8.76078L12.5462 10.418C14.5408 8.42351 17.188 7.32507 20.0002 7.32507C22.8122 7.32507 25.4594 8.42351 27.4538 10.4179L29.1111 8.76062C26.6739 6.32351 23.4383 4.98132 20.0002 4.98132C16.5619 4.98132 13.3262 6.32359 10.889 8.76078Z" fill="white"/>
<path d="M20.0001 2.63379C24.0705 2.63379 27.8971 4.21887 30.7752 7.09707L32.4325 5.4398C29.1117 2.11895 24.6965 0.290039 20.0001 0.290039C15.3039 0.290039 10.8887 2.11887 7.56787 5.43965L9.22514 7.09691C12.1033 4.21879 15.9299 2.63379 20.0001 2.63379Z" fill="white"/>
<path d="M39.9986 18.4875L19.9999 10.1827L0.00140381 18.4875L0.90031 20.6521L3.51844 19.5648V40.29H36.4816V19.5649L39.0997 20.6521L39.9986 18.4875ZM18.2271 30.4506L11.3316 36.5243V24.377L18.2271 30.4506ZM20 32.0123L26.737 37.9463H13.263L20 32.0123ZM21.7729 30.4506L28.6684 24.377V36.5244L21.7729 30.4506ZM20 28.889L13.263 22.955H26.737L20 28.889ZM34.1378 37.9463H31.0122V20.6113H8.98781V37.9463H5.86219V18.5916L19.9998 12.7206L34.1378 18.5916V37.9463Z" fill="white"/>
</g>
<defs>
<clipPath id="clip0">
<rect width="40" height="40" fill="white" transform="translate(0 0.290039)"/>
</clipPath>
</defs>
</svg>
