<svg width="41" height="41" viewBox="0 0 41 41" fill="none" xmlns="http://www.w3.org/2000/svg">
<g clip-path="url(#clip0)">
<path d="M17.1378 12.3285C16.8141 12.3285 16.5519 12.5908 16.5519 12.9144V13.147C16.5519 13.4706 16.8141 13.7329 17.1378 13.7329C17.4615 13.7329 17.7238 13.4706 17.7238 13.147V12.9144C17.7238 12.5908 17.4615 12.3285 17.1378 12.3285Z" fill="white"/>
<path d="M16.02 11.5038L17.9133 11.7695C17.941 11.7734 17.9683 11.7753 17.9955 11.7753C18.283 11.7753 18.534 11.5635 18.575 11.2707C18.62 10.9503 18.3967 10.654 18.0762 10.609L16.1828 10.3433C15.8628 10.2981 15.5661 10.5217 15.5212 10.8421C15.4762 11.1625 15.6995 11.4588 16.02 11.5038Z" fill="white"/>
<path d="M23.2056 12.3285C22.882 12.3285 22.6197 12.5908 22.6197 12.9144V13.147C22.6197 13.4706 22.882 13.7329 23.2056 13.7329C23.5293 13.7329 23.7916 13.4706 23.7916 13.147V12.9144C23.7916 12.5908 23.5293 12.3285 23.2056 12.3285Z" fill="white"/>
<path d="M22.3501 11.7753C22.3773 11.7753 22.4046 11.7734 22.4323 11.7695L24.3256 11.5038C24.6462 11.4588 24.8695 11.1625 24.8245 10.8421C24.7795 10.5215 24.483 10.2983 24.1628 10.3432L22.2695 10.6089C21.9489 10.6539 21.7256 10.9502 21.7706 11.2707C21.8116 11.5636 22.0626 11.7753 22.3501 11.7753Z" fill="white"/>
<path d="M19.4166 20.3567H20.938C21.2616 20.3567 21.5239 20.0943 21.5239 19.7707C21.5239 19.4471 21.2616 19.1848 20.938 19.1848H19.4166C19.0929 19.1848 18.8306 19.4471 18.8306 19.7707C18.8306 20.0943 19.0929 20.3567 19.4166 20.3567Z" fill="white"/>
<path d="M19.4166 18.399H20.938C21.2616 18.399 21.5239 18.1367 21.5239 17.8131C21.5239 17.4895 21.2616 17.2271 20.938 17.2271H19.4166C19.0929 17.2271 18.8306 17.4895 18.8306 17.8131C18.8306 18.1367 19.0929 18.399 19.4166 18.399Z" fill="white"/>
<path d="M22.3871 31.0274C22.3871 33.0686 24.0477 34.7292 26.0889 34.7292C28.13 34.7292 29.7906 33.0686 29.7906 31.0274C29.7906 28.9863 28.13 27.3256 26.0889 27.3256C24.0477 27.3256 22.3871 28.9862 22.3871 31.0274ZM28.6188 31.0274C28.6188 32.4224 27.4839 33.5574 26.0889 33.5574C24.6939 33.5574 23.559 32.4224 23.559 31.0274C23.559 29.6324 24.6939 28.4974 26.0889 28.4974C27.4839 28.4974 28.6188 29.6324 28.6188 31.0274Z" fill="white"/>
<path d="M25.503 29.96V30.4415H25.0215C24.6978 30.4415 24.4355 30.7038 24.4355 31.0274C24.4355 31.351 24.6978 31.6134 25.0215 31.6134H25.503V32.0926C25.503 32.4162 25.7652 32.6785 26.0889 32.6785C26.4126 32.6785 26.6748 32.4162 26.6748 32.0926V31.6134H27.1562C27.4799 31.6134 27.7422 31.351 27.7422 31.0274C27.7422 30.7038 27.4799 30.4415 27.1562 30.4415H26.6748V29.96C26.6748 29.6364 26.4126 29.3741 26.0889 29.3741C25.7652 29.3741 25.503 29.6363 25.503 29.96Z" fill="white"/>
<path d="M35.8606 27.8117C35.6819 27.5417 35.3184 27.4679 35.0486 27.6466C34.7787 27.8253 34.7049 28.1889 34.8836 28.4587C35.6506 29.6171 36.0396 30.8971 36.0396 32.2632V38.8679H31.2168V35.2373C31.2168 34.9137 30.9545 34.6514 30.6309 34.6514C30.3072 34.6514 30.0449 34.9137 30.0449 35.2373V38.8679H20.7643V26.2425C21.911 26.1419 23.7568 25.8071 24.6852 24.7088C24.8941 24.4616 24.863 24.0919 24.6159 23.8831C24.3684 23.6742 23.9989 23.7053 23.7901 23.9524C23.3091 24.5214 22.178 24.9317 20.7644 25.0667V22.4871H21.3256C25.1215 22.4871 28.2096 19.3989 28.2096 15.6029V13.0828C28.2096 12.9726 28.2045 12.8589 28.1945 12.7342H30.7005V14.912C30.7005 19.2216 29.5459 21.195 27.683 22.9821C27.5288 23.13 27.4674 23.3499 27.5226 23.5563C27.5777 23.7627 27.7408 23.9225 27.9481 23.9738C29.8697 24.4482 31.7779 25.3986 33.1834 26.5816C33.2933 26.6741 33.4272 26.7192 33.5604 26.7192C33.7273 26.7192 33.8931 26.6483 34.009 26.5107C34.2173 26.2631 34.1855 25.8935 33.938 25.685C32.637 24.59 30.9477 23.6783 29.193 23.111C30.8263 21.3056 31.8723 19.0575 31.8723 14.9121V12.0974C31.8723 8.50175 30.6837 5.43925 28.4348 3.24112C26.3229 1.17667 23.3907 0.0397949 20.1784 0.0397949C16.8568 0.0397949 13.8559 1.24479 11.7284 3.43284C11.5028 3.66487 11.508 4.03581 11.74 4.26136C11.9721 4.48706 12.3431 4.48167 12.5685 4.24979C14.4736 2.29065 17.1761 1.21167 20.1784 1.21167C26.1997 1.21167 30.4555 5.44034 30.6898 11.5622H28.2095V10.4894C28.2095 9.56315 27.703 9.20612 27.0397 8.92753L27.4527 8.35339C27.6416 8.09073 27.5818 7.72456 27.3191 7.53558C27.0563 7.34667 26.6902 7.40628 26.5013 7.66909L25.8998 8.50519C25.3014 8.32315 24.6194 8.17667 23.8855 8.0655L24.0927 7.01269C24.1553 6.69519 23.9485 6.38714 23.631 6.32464C23.3136 6.26237 23.0055 6.46886 22.943 6.78644L22.7195 7.9223C22.0847 7.86128 21.4273 7.82394 20.7644 7.81011V6.62503C20.7644 6.30144 20.5021 6.03909 20.1784 6.03909C19.8548 6.03909 19.5925 6.30144 19.5925 6.62503V7.81019C18.9302 7.82409 18.2737 7.86136 17.6396 7.9223L17.4161 6.78644C17.3537 6.46901 17.0463 6.26229 16.728 6.32464C16.4105 6.38714 16.2037 6.69519 16.2663 7.01269L16.4735 8.0655C15.7981 8.16784 15.1668 8.30019 14.6037 8.46237L13.9375 7.53628C13.7485 7.27355 13.3823 7.21386 13.1196 7.40276C12.857 7.59167 12.7972 7.95784 12.9861 8.22058L13.4548 8.8723C12.726 9.16073 12.1495 9.50097 12.1495 10.4894V11.5622H9.66492C9.735 9.6319 10.1855 7.88737 11.0092 6.37097C11.1637 6.08659 11.0584 5.73089 10.774 5.57644C10.4895 5.42183 10.1338 5.52737 9.97937 5.81167C8.98594 7.64073 8.48219 9.75542 8.48219 12.0972V14.912C8.48219 19.0571 9.5282 21.3048 11.1614 23.1092C7.0293 24.4289 3.14523 27.6401 3.14523 32.2632V39.4539C3.14523 39.7775 3.4075 40.0398 3.73117 40.0398H36.6256C36.9493 40.0398 37.2116 39.7775 37.2116 39.4539V32.2632C37.2115 30.663 36.757 29.1653 35.8606 27.8117ZM13.3212 10.4894C13.3212 10.1953 13.3212 10.1713 14.1886 9.84667C14.3224 9.79659 14.4673 9.74229 14.6237 9.68112C17.4859 8.74167 22.8728 8.74159 25.7352 9.68112C25.8916 9.74229 26.0364 9.79659 26.1703 9.84667C27.0377 10.1713 27.0377 10.1953 27.0377 10.4894V12.1526C27.0377 13.0867 26.7086 13.9061 26.0861 14.5222C25.4556 15.1462 24.561 15.5021 23.6257 15.5021C23.613 15.5021 23.6002 15.5021 23.5876 15.502C22.0509 15.4876 21.7748 15.1435 21.3917 14.6657C21.0943 14.2974 20.6555 14.0868 20.1861 14.0868C20.1809 14.0868 20.1757 14.0868 20.1707 14.0868C19.7027 14.0868 19.2646 14.2974 18.9662 14.6672C18.5841 15.1435 18.3081 15.4876 16.7708 15.5021C16.7581 15.5021 16.7455 15.5022 16.7327 15.5022C15.798 15.5022 14.9034 15.1462 14.2729 14.5223C13.7485 14.0033 13.4334 13.3397 13.3467 12.5852C13.3454 12.5641 13.3431 12.5432 13.3396 12.5226C13.3278 12.4014 13.3214 12.2782 13.3214 12.1528V10.4894H13.3212ZM13.3191 15.2203C13.3613 15.266 13.4041 15.3112 13.4484 15.3551C14.297 16.195 15.4916 16.674 16.7324 16.674C16.749 16.674 16.7657 16.6739 16.7823 16.6738C18.551 16.6573 19.2133 16.232 19.8791 15.4018C19.9526 15.3107 20.0588 15.2587 20.1709 15.2587C20.1733 15.2587 20.1759 15.2588 20.1784 15.2587H20.1859C20.2993 15.2587 20.4062 15.3107 20.4787 15.4003C21.1456 16.232 21.808 16.6572 23.576 16.6738C23.5927 16.6739 23.6092 16.674 23.6259 16.674C24.8673 16.674 26.062 16.1949 26.9105 15.3551C26.9541 15.3119 26.9961 15.2675 27.0377 15.2226V15.6028C27.0377 18.7526 24.4752 21.3152 21.3255 21.3152H19.0313C15.8816 21.3152 13.3191 18.7527 13.3191 15.6028V15.2203H13.3191ZM19.5924 25.0667C18.1773 24.9317 17.0464 24.5217 16.5672 23.9529C16.3587 23.7055 15.9891 23.6739 15.7416 23.8825C15.4941 24.091 15.4626 24.4607 15.6711 24.7081C16.5972 25.8071 18.4447 26.1419 19.5924 26.2425V38.8679H9.98844V35.2373C9.98844 34.9137 9.72617 34.6514 9.4025 34.6514C9.07883 34.6514 8.81656 34.9137 8.81656 35.2373V38.8679H4.31711V32.2632C4.31711 27.2942 9.4032 24.7146 12.4084 23.9738C12.6159 23.9226 12.779 23.7626 12.8342 23.5561C12.8894 23.3496 12.8278 23.1296 12.6734 22.9817C10.8094 21.1957 9.65406 19.2228 9.65406 14.912V12.7342H12.1614C12.1522 12.8466 12.1472 12.9617 12.1472 13.0828V15.6029C12.1472 19.3989 15.2353 22.4871 19.0312 22.4871H19.5924V25.0667Z" fill="white"/>
</g>
<defs>
<clipPath id="clip0">
<rect width="40" height="40" fill="white" transform="translate(0.178345 0.0397949)"/>
</clipPath>
</defs>
</svg>
