<svg width="36" height="28" viewBox="0 0 36 28" fill="none" xmlns="http://www.w3.org/2000/svg">
<g clip-path="url(#clip0)">
<path d="M0.269653 16.7463V17.8374C0.269653 18.3071 0.74553 18.6875 1.33241 18.6875H4.08034C4.17062 20.102 5.63288 21.2268 7.4234 21.2268C9.21392 21.2268 10.6763 20.102 10.7664 18.6875H25.0168C25.1071 20.102 26.5693 21.2268 28.3598 21.2268C30.1504 21.2268 31.6126 20.102 31.7028 18.6875H34.2068C34.7939 18.6875 35.2696 18.3069 35.2696 17.8374V16.7463C35.2696 16.3211 34.8789 15.9699 34.3693 15.907C34.1416 14.8494 33.6602 13.5043 32.6549 13.0224C30.9047 12.1836 27.7661 11.4921 27.7661 11.4921C27.7661 11.4921 21.8359 6.77344 17.2308 6.77344H5.257C0.51 6.77344 0.984654 10.8374 0.984654 10.8374V13.1431H2.66815C2.7952 13.1431 2.89825 13.2255 2.89825 13.3271V14.21C2.89825 14.3116 2.7952 14.394 2.66815 14.394H0.98473V15.9436C0.56871 16.0589 0.269653 16.3742 0.269653 16.7463ZM27.1378 18.5487C27.1378 18.0097 27.6859 17.571 28.3598 17.571C29.0336 17.571 29.5818 18.0097 29.5818 18.5487C29.5818 19.0877 29.0336 19.5262 28.3598 19.5262C27.6859 19.5263 27.1378 19.0878 27.1378 18.5487ZM12.9024 8.34627H16.2321C18.32 8.34627 20.7931 9.64842 22.4999 10.7407C22.7636 10.9094 22.8652 11.1929 22.7534 11.4478C22.6416 11.7025 22.3409 11.8728 22.0036 11.8728C22.0032 11.8728 22.0032 11.8728 22.003 11.8728L12.9023 11.8671L12.9024 8.34627ZM6.20141 18.5487C6.20141 18.0097 6.74961 17.571 7.42348 17.571C8.09727 17.571 8.64547 18.0097 8.64547 18.5487C8.64547 19.0877 8.09727 19.5262 7.42348 19.5262C6.74961 19.5263 6.20141 19.0878 6.20141 18.5487ZM4.95083 9.06431C5.49765 8.58778 6.28122 8.34621 7.27976 8.34621H10.7767V11.8657L4.87056 11.8619C4.43887 11.8617 4.08622 11.5854 4.07682 11.24C4.06566 10.8247 4.12812 9.78095 4.95083 9.06431Z" fill="#179EFF"/>
</g>
<defs>
<clipPath id="clip0">
<rect width="35" height="28" fill="white" transform="translate(0.269653)"/>
</clipPath>
</defs>
</svg>
