<svg width="33" height="33" viewBox="0 0 33 33" fill="none" xmlns="http://www.w3.org/2000/svg">
<g clip-path="url(#clip0)">
<path d="M16.7551 32.8882C25.5917 32.8882 32.7551 25.7247 32.7551 16.8882C32.7551 8.05163 25.5917 0.888184 16.7551 0.888184C7.91857 0.888184 0.755127 8.05163 0.755127 16.8882C0.755127 25.7247 7.91857 32.8882 16.7551 32.8882Z" fill="#75B73B"/>
<path d="M23.2702 10.3774C22.3425 10.1454 20.9782 9.34417 20.0952 9.02299C16.6473 7.94555 12.0143 8.80749 10.7214 12.794C10.6137 12.9018 10.3982 12.9018 10.2904 12.9018C7.70453 15.9186 9.42847 19.5819 9.21297 22.922C9.13941 24.0994 8.52028 25.1405 7.72353 26.0212L14.4287 32.7194C15.1883 32.83 15.9648 32.8883 16.7551 32.8883C24.6573 32.8883 31.2208 27.1592 32.5205 19.6282L23.2702 10.3774Z" fill="#52891D"/>
<path d="M16.3069 7.66632C11.4301 7.89832 7.58167 11.9598 7.59636 16.842C7.60086 18.329 7.95986 19.7326 8.59323 20.9729L7.62092 25.6926C7.56836 25.948 7.79861 26.1715 8.05223 26.1114L12.6769 25.0158C13.8651 25.6077 15.1997 25.9494 16.612 25.971C21.5966 26.0472 25.7527 22.0895 25.9083 17.1067C26.0747 11.7656 21.6665 7.41101 16.3069 7.66632ZM21.8252 21.8844C20.4709 23.2387 18.67 23.9846 16.7546 23.9846C15.6331 23.9846 14.5592 23.733 13.563 23.2368L12.9191 22.9159L10.0835 23.5876L10.6803 20.6903L10.3631 20.0689C9.84585 19.056 9.58361 17.9609 9.58361 16.8136C9.58361 14.8981 10.3295 13.0974 11.6839 11.743C13.0261 10.4006 14.8563 9.64276 16.7547 9.64276C18.67 9.64276 20.4709 10.3887 21.8252 11.743C23.1795 13.0973 23.9254 14.8982 23.9254 16.8134C23.9255 18.7119 23.1675 20.5421 21.8252 21.8844Z" fill="white"/>
<path d="M21.1997 18.7996L19.4257 18.2903C19.1927 18.2234 18.9414 18.2896 18.7715 18.4628L18.3376 18.9046C18.1547 19.0911 17.8772 19.1509 17.6351 19.053C16.7959 18.7134 15.0306 17.1438 14.5801 16.3589C14.4498 16.1324 14.4714 15.8494 14.6311 15.6425L15.0097 15.1526C15.1581 14.9607 15.1894 14.7028 15.0913 14.4809L14.345 12.7929C14.1662 12.3886 13.6496 12.2709 13.3121 12.5564C12.817 12.9752 12.2296 13.6114 12.1582 14.3164C12.0323 15.5593 12.5654 17.126 14.5809 19.0073C16.9094 21.1809 18.7742 21.4679 19.9886 21.1738C20.6772 21.0071 21.2276 20.3385 21.5747 19.7909C21.8117 19.4174 21.6244 18.9216 21.1997 18.7996Z" fill="white"/>
<path d="M23.0049 10.12L21.616 11.5436C21.6867 11.6089 21.7571 11.6746 21.8254 11.7431C23.1798 13.0974 23.9257 14.8982 23.9257 16.8135C23.9257 18.7119 23.1677 20.542 21.8254 21.8844C20.4711 23.2387 18.6703 23.9846 16.7548 23.9846C15.6333 23.9846 14.5595 23.7329 13.5632 23.2367L12.9193 22.9159L10.0837 23.5876L10.1423 23.303L7.63144 25.8762C7.68681 26.0427 7.863 26.1559 8.05231 26.1111L12.677 25.0155C13.8652 25.6074 15.1998 25.9492 16.6121 25.9707C21.5967 26.0469 25.7529 22.0892 25.9084 17.1064C25.9943 14.3481 24.8601 11.8529 23.0049 10.12Z" fill="#D1D1D1"/>
<path d="M21.1996 18.7998L19.4256 18.2905C19.1926 18.2236 18.9413 18.2898 18.7714 18.463L18.3375 18.9048C18.1546 19.0913 17.8771 19.1511 17.635 19.0532C17.1503 18.857 16.3568 18.2504 15.686 17.6217L14.4527 18.8858C14.495 18.9263 14.5372 18.9667 14.5808 19.0075C16.9094 21.1811 18.7742 21.4681 19.9885 21.174C20.6772 21.0073 21.2276 20.3387 21.5747 19.7911C21.8116 19.4176 21.6243 18.9218 21.1996 18.7998Z" fill="#D1D1D1"/>
</g>
<defs>
<clipPath id="clip0">
<rect width="32" height="32" fill="white" transform="translate(0.755127 0.888184)"/>
</clipPath>
</defs>
</svg>
